<svg width="94" height="108" viewBox="0 0 94 108" fill="none" xmlns="http://www.w3.org/2000/svg">
<path d="M74.9595 73.7944L41.6267 73.5513V107.713" fill="#02547B"/>
<path d="M74.9595 73.6728L41.6267 73.5513V107.713" fill="#02547C"/>
<path d="M74.9595 73.6728L41.6267 73.5513V107.713" fill="#02557D"/>
<path d="M74.9595 73.6728L41.6267 73.5513V107.713" fill="#02557E"/>
<path d="M74.9595 73.6728L41.6267 73.5513V107.591" fill="#02567F"/>
<path d="M74.9595 73.6728L41.6267 73.5513V107.591" fill="#025680"/>
<path d="M74.9595 73.6728L41.6267 73.4297V107.591" fill="#015781"/>
<path d="M74.9595 73.6728L41.6267 73.4297V107.591" fill="#015782"/>
<path d="M74.9595 73.5513L41.6267 73.4297V107.591" fill="#015783"/>
<path d="M74.9595 73.5513L41.6267 73.4297V107.591" fill="#015884"/>
<path d="M74.9595 73.5513L41.6267 73.4297V107.47" fill="#015885"/>
<path d="M74.9595 73.5513L41.6267 73.4297V107.47" fill="#015986"/>
<path d="M74.9595 73.5513L41.6267 73.4297V107.47" fill="#015986"/>
<path d="M74.9595 73.551L41.6267 73.3079V107.47" fill="#015A87"/>
<path d="M74.9595 73.551L41.6267 73.3079V107.47" fill="#015A88"/>
<path d="M74.9595 73.4294L41.6267 73.3079V107.47" fill="#015B89"/>
<path d="M74.9595 73.4294L41.6267 73.3079V107.348" fill="#015B8A"/>
<path d="M74.9595 73.4294L41.6267 73.3079V107.348" fill="#015B8B"/>
<path d="M74.9595 73.4294L41.6267 73.3079V107.348" fill="#005C8C"/>
<path d="M74.9595 73.4294L41.6267 73.3079V107.348" fill="#005C8D"/>
<path d="M74.9595 73.4297L41.6267 73.1865V107.348" fill="#005D8E"/>
<path d="M74.8379 73.4297L41.6267 73.1865V107.227" fill="#005D8F"/>
<path d="M74.8379 73.3081L41.6267 73.1865V107.227" fill="#005E90"/>
<path d="M74.8379 73.3081L41.6267 73.1865V107.227" fill="#005E91"/>
<path d="M74.5944 61.394L41.5049 75.2533L41.6265 78.5357L71.7964 75.3749L74.5944 61.394Z" fill="#014064"/>
<path d="M39.8018 84.6141L15.7146 64.7979L28.6098 54.2211V32.095L0.994629 53.2485V76.3472L39.8018 107.713V84.6141Z" fill="#009091"/>
<path d="M39.8018 84.6144L15.7146 64.7981L0.994629 76.3475L39.8018 107.713V84.6144Z" fill="#03726E"/>
<path d="M39.8018 84.4928L15.7146 64.7981L0.994629 76.3475L39.8018 107.713V84.4928Z" fill="#03736F"/>
<path d="M39.8018 84.4928L15.5929 64.7981L0.994629 76.2259L39.8018 107.713V84.4928Z" fill="#037470"/>
<path d="M39.8018 84.4928L15.5929 64.6765L0.994629 76.2259L39.8018 107.713V84.4928Z" fill="#037571"/>
<path d="M39.8018 84.4928L15.5929 64.6765L0.994629 76.2259L39.8018 107.592V84.4928Z" fill="#037572"/>
<path d="M39.8018 84.4928L15.5929 64.6765L0.994629 76.2259L39.8018 107.592V84.4928Z" fill="#037673"/>
<path d="M39.8018 84.4928L15.5929 64.6765L0.994629 76.1043L39.8018 107.592V84.4928Z" fill="#027774"/>
<path d="M39.8018 84.4928L15.4713 64.6765L0.994629 76.1043L39.8018 107.592V84.4928Z" fill="#027875"/>
<path d="M39.8018 84.4928L15.4713 64.6765L0.994629 76.1043L39.8018 107.47V84.4928Z" fill="#027976"/>
<path d="M39.8018 84.4928L15.4713 64.6765L0.994629 76.1043L39.8018 107.47V84.4928Z" fill="#027A77"/>
<path d="M39.8018 84.4928L15.4713 64.6765L0.994629 75.9827L39.8018 107.47V84.4928Z" fill="#027A78"/>
<path d="M39.8018 84.4928L15.4713 64.5549L0.994629 75.9827L39.8018 107.47V84.4928Z" fill="#027B79"/>
<path d="M39.8018 84.4928L15.4713 64.5549L0.994629 75.9827L39.8018 107.348V84.4928Z" fill="#027C7A"/>
<path d="M39.8018 84.4928L15.3496 64.5549L0.994629 75.9827L39.8018 107.348V84.4928Z" fill="#027D7B"/>
<path d="M39.8018 84.4928L15.3496 64.5549L0.994629 75.8612L39.8018 107.348V84.4928Z" fill="#027E7C"/>
<path d="M39.8018 84.4928L15.3496 64.5549L0.994629 75.8612L39.8018 107.348V84.4928Z" fill="#027F7D"/>
<path d="M39.8018 84.4928L15.3496 64.5549L0.994629 75.8611L39.8018 107.227V84.4928Z" fill="#027F7E"/>
<path d="M39.8018 84.4928L15.3496 64.5549L0.994629 75.8611L39.8018 107.227V84.4928Z" fill="#02807F"/>
<path d="M39.8018 84.3712L15.3496 64.5549L0.994629 75.7396L39.8018 107.227V84.3712Z" fill="#028180"/>
<path d="M39.8018 84.3712L15.228 64.5549L0.994629 75.7396L39.8018 107.227V84.3712Z" fill="#018280"/>
<path d="M39.8018 84.3709L15.228 64.4331L0.994629 75.7393L39.8018 107.105V84.3709Z" fill="#018381"/>
<path d="M39.8018 84.3709L15.228 64.4331L0.994629 75.7393L39.8018 107.105V84.3709Z" fill="#018382"/>
<path d="M39.8018 84.3709L15.228 64.4331L0.994629 75.6177L39.8018 107.105V84.3709Z" fill="#018483"/>
<path d="M39.8018 84.3709L15.228 64.4331L0.994629 75.6177L39.8018 107.105V84.3709Z" fill="#018584"/>
<path d="M39.8018 84.3709L15.1063 64.4331L0.994629 75.6177L39.8018 106.983V84.3709Z" fill="#018685"/>
<path d="M39.8018 84.3709L15.1063 64.4331L0.994629 75.6177L39.8018 106.983V84.3709Z" fill="#018786"/>
<path d="M39.8018 84.3709L15.1063 64.4331L0.994629 75.4962L39.8018 106.983V84.3709Z" fill="#018887"/>
<path d="M39.8015 84.3709L15.106 64.4331L1.11597 75.4962L39.8015 106.983V84.3709Z" fill="#018888"/>
<path d="M39.8015 84.3709L15.106 64.4331L1.11597 75.4962L39.8015 106.862V84.3709Z" fill="#018989"/>
<path d="M39.8015 84.3712L15.106 64.3118L1.11597 75.4964L39.8015 106.862V84.3712Z" fill="#018A8A"/>
<path d="M39.8015 84.3712L14.9844 64.3118L1.11597 75.3748L39.8015 106.862V84.3712Z" fill="#018B8B"/>
<path d="M39.8015 84.3712L14.9844 64.3118L1.11597 75.3748L39.8015 106.862V84.3712Z" fill="#008C8C"/>
<path d="M39.8015 84.3712L14.9844 64.3118L1.11597 75.3748L39.8015 106.74V84.3712Z" fill="#008D8D"/>
<path d="M39.8015 84.3712L14.9844 64.3118L1.11597 75.3748L39.8015 106.74V84.3712Z" fill="#008D8E"/>
<path d="M39.8015 84.2496L14.9844 64.3118L1.11597 75.2533L39.8015 106.74V84.2496Z" fill="#008E8F"/>
<path d="M39.8015 84.2496L14.8627 64.3118L1.11597 75.2533L39.8015 106.74V84.2496Z" fill="#008F90"/>
<path d="M39.8015 84.2496L14.8627 64.3118L1.11597 75.2533L39.8015 106.619V84.2496Z" fill="#009091"/>
<path d="M28.6098 54.2211V32.095L0.994629 53.2485V76.3472L28.6098 54.2211Z" fill="#00DFCB"/>
<path d="M28.6098 54.2211V32.095L0.994629 53.2485V76.3472L28.6098 54.2211Z" fill="#30F9DF"/>
<path d="M28.3664 54.0996L28.2447 32.7029L1.11621 53.4917L1.23786 75.9826L28.3664 54.0996Z" fill="url(#paint0_radial)"/>
<path d="M28.1232 53.9778L28.0015 33.4321L1.35962 53.7347L1.48127 75.7393L28.1232 53.9778Z" fill="url(#paint1_radial)"/>
<path d="M30.9211 52.8839L55.9816 32.7029L42.8431 22.1261V0L70.3366 21.032V44.1307L30.9211 75.6179V52.8839Z" fill="url(#paint2_radial)"/>
<path opacity="0.41" d="M70.3366 44.3738L39.4368 45.9543L55.8599 32.7029L70.3366 44.3738Z" fill="#911808"/>
<path d="M70.3366 44.3738L43.208 42.9149L55.8599 32.7029" fill="#701208"/>
<path d="M70.3367 44.3738L39.6802 40.9698L55.86 32.7029L70.3367 44.3738Z" fill="url(#paint3_radial)"/>
<path d="M70.2149 44.2522L40.1667 40.8482L55.8599 32.7029L70.2149 44.2522Z" fill="url(#paint4_radial)"/>
<path d="M70.0934 44.0091L40.7751 40.7266L55.8601 32.7029L70.0934 44.0091Z" fill="url(#paint5_radial)"/>
<path opacity="0.41" d="M49.5339 36.2285L55.8599 32.7029L70.3365 44.1307L49.5339 36.2285Z" fill="#911808"/>
<path d="M54.0352 33.797L55.8599 32.7029L70.3366 44.1307L54.0352 33.797Z" fill="#701208"/>
<path d="M69.9716 43.8875L30.9211 74.8884V75.6178L70.3366 44.1306L69.9716 43.8875Z" fill="#BC1E13"/>
<path d="M42.843 22.1261V0L70.3365 21.032V44.1307L42.843 22.1261Z" fill="#FC9568"/>
<path d="M43.208 22.0046L43.3297 0.972656L70.2149 21.7615V43.6445L43.208 22.0046Z" fill="url(#paint6_radial)"/>
<path d="M43.573 22.0045L43.8163 2.06665L69.9716 22.3692L70.0933 43.1581L43.573 22.0045Z" fill="url(#paint7_radial)"/>
<path d="M39.8018 84.6143L15.7146 64.7981L15.3496 65.0412L38.9502 84.6143H39.8018Z" fill="#0AA09A"/>
<path d="M70.2149 57.2605L54.5218 57.5036L31.7727 75.3748H93.5723L70.2149 57.2605Z" fill="#38CAFC"/>
<path d="M69.9716 57.8684L53.9135 57.99L32.2593 74.7669L92.3557 74.6454L69.9716 57.8684Z" fill="url(#paint8_radial)"/>
<path d="M63.4024 57.3821L54.6434 57.5037L32.1377 75.1316L63.4024 57.3821Z" fill="#005E91"/>
<path opacity="0.5" d="M23.3787 71.1198L15.7146 64.7981L0.994629 76.3474L23.3787 71.1198Z" fill="#016264"/>
<path opacity="0.5" d="M19.3642 67.7158L15.7146 64.7981L0.994629 76.3474L19.3642 67.7158Z" fill="#016264"/>
<defs>
<radialGradient id="paint0_radial" cx="0" cy="0" r="1" gradientUnits="userSpaceOnUse" gradientTransform="translate(29.8749 35.5857) rotate(-34.8165) scale(83.0608 47.8811)">
<stop offset="0.1129" stop-color="#18ECCF"/>
<stop offset="1" stop-color="#18E4DF"/>
</radialGradient>
<radialGradient id="paint1_radial" cx="0" cy="0" r="1" gradientUnits="userSpaceOnUse" gradientTransform="translate(29.6236 36.1464) rotate(-34.8166) scale(81.2699 46.8487)">
<stop offset="0.1129" stop-color="#01DFBE"/>
<stop offset="1" stop-color="#01D0DF"/>
</radialGradient>
<radialGradient id="paint2_radial" cx="0" cy="0" r="1" gradientUnits="userSpaceOnUse" gradientTransform="translate(50.6185 37.8039) scale(30.1765 30.1566)">
<stop offset="0.016129" stop-color="#CC1B02"/>
<stop offset="1" stop-color="#ED1E03"/>
</radialGradient>
<radialGradient id="paint3_radial" cx="0" cy="0" r="1" gradientUnits="userSpaceOnUse" gradientTransform="translate(54.9688 38.5266) scale(11.5824 11.5748)">
<stop offset="0.0591398" stop-color="#F29442"/>
<stop offset="1" stop-color="#F27E42"/>
</radialGradient>
<radialGradient id="paint4_radial" cx="0" cy="0" r="1" gradientUnits="userSpaceOnUse" gradientTransform="translate(55.1929 38.4484) scale(11.3604 11.3529)">
<stop offset="0.0591398" stop-color="#F27F23"/>
<stop offset="1" stop-color="#F26523"/>
</radialGradient>
<radialGradient id="paint5_radial" cx="0" cy="0" r="1" gradientUnits="userSpaceOnUse" gradientTransform="translate(55.4172 38.3701) scale(11.1383 11.1309)">
<stop offset="0.0591398" stop-color="#F26A03"/>
<stop offset="1" stop-color="#F24C03"/>
</radialGradient>
<radialGradient id="paint6_radial" cx="0" cy="0" r="1" gradientUnits="userSpaceOnUse" gradientTransform="translate(43.3239 14.575) rotate(17.4584) scale(27.3183 31.3793)">
<stop offset="0.0591398" stop-color="#F78036"/>
<stop offset="1" stop-color="#F77136"/>
</radialGradient>
<radialGradient id="paint7_radial" cx="0" cy="0" r="1" gradientUnits="userSpaceOnUse" gradientTransform="translate(43.6978 15.1077) rotate(17.4584) scale(26.5439 30.4897)">
<stop offset="0.0591398" stop-color="#F26A03"/>
<stop offset="1" stop-color="#F24C03"/>
</radialGradient>
<radialGradient id="paint8_radial" cx="0" cy="0" r="1" gradientUnits="userSpaceOnUse" gradientTransform="translate(63.9891 57.3375) scale(90.1821 46.6564)">
<stop offset="0.1129" stop-color="#01B3DF"/>
<stop offset="1" stop-color="#0183DF"/>
</radialGradient>
</defs>
</svg>
