<svg width="33" height="23" viewBox="0 0 33 23" fill="none" xmlns="http://www.w3.org/2000/svg">
<path d="M28.6157 0H4.40527C2.242 0 0.484863 1.65738 0.484863 3.69782V19.31C0.484863 21.3504 2.242 23.0078 4.40527 23.0078H28.6157C30.7789 23.0078 32.5361 21.3504 32.5361 19.31V3.70564C32.5361 1.66519 30.7789 0 28.6157 0ZM30.7458 19.31C30.7458 20.4201 29.7926 21.3192 28.6157 21.3192H4.40527C3.22832 21.3192 2.27516 20.4201 2.27516 19.31V3.70564C2.27516 2.59551 3.22832 1.69647 4.40527 1.69647H28.6157C29.7926 1.69647 30.7458 2.59551 30.7458 3.70564V19.31Z" fill="#7F7F7F"/>
<path d="M20.6919 11.3047L28.5327 4.67517C28.8974 4.36246 28.9305 3.83085 28.599 3.47904C28.2675 3.13506 27.7039 3.10379 27.3309 3.4165L16.5228 12.5633L14.4176 10.7887C14.4093 10.7809 14.401 10.7731 14.401 10.7731C14.3513 10.7262 14.3098 10.6949 14.2518 10.6558L5.67332 3.4165C5.30034 3.10379 4.73673 3.13506 4.4052 3.48686C4.07366 3.83866 4.10681 4.37027 4.47979 4.68299L12.4118 11.3672L4.51294 18.3407C4.15654 18.6612 4.13168 19.1928 4.4715 19.5368C4.65385 19.7088 4.88592 19.8026 5.12629 19.8026C5.34178 19.8026 5.56557 19.7245 5.73963 19.5759L13.7545 12.5008L15.9261 14.3302C16.1001 14.4709 16.3073 14.5412 16.5228 14.5412C16.7383 14.5412 16.9538 14.4631 17.1196 14.3223L19.3575 12.4304L27.3309 19.5759C27.5049 19.7323 27.7287 19.8105 27.9442 19.8105C28.1846 19.8105 28.4167 19.7245 28.5907 19.5446C28.9305 19.2085 28.914 18.6691 28.5576 18.3485L20.6919 11.3047Z" fill="#7F7F7F"/>
</svg>
