<svg width="85" height="86" viewBox="0 0 85 86" fill="none" xmlns="http://www.w3.org/2000/svg">
<path d="M80.8177 86C78.8188 86 77.199 84.3767 77.199 82.3735C77.199 80.3703 78.8188 78.747 80.8177 78.747C82.8166 78.747 84.4364 80.3703 84.4364 82.3735C84.4364 84.3767 82.8166 86 80.8177 86ZM80.8177 80.4739C79.7665 80.4739 78.9222 81.3201 78.9222 82.3735C78.9222 83.4269 79.7665 84.2731 80.8177 84.2731C81.8688 84.2731 82.7132 83.4269 82.7132 82.3735C82.7132 81.3201 81.8688 80.4739 80.8177 80.4739ZM43.5967 86C40.8396 86 38.5995 83.755 38.5995 80.992V79.0924H30.8279L26.6922 74.9478H15.5087V79.0924H6.89276V52.498H14.8884L16.939 48.7506L16.8183 48.5088C16.2669 47.3691 15.7672 46.212 15.3709 45.055L15.2847 44.8133L9.64987 42.9309V27.8723L15.3019 25.99L15.3881 25.7482C15.7844 24.5912 16.2669 23.4169 16.8356 22.2598L16.9562 22.0353L14.2853 16.6819L24.9173 6.02691L30.2592 8.70362L30.4832 8.58273C31.6378 8.01285 32.8096 7.52932 33.9641 7.13213L34.2053 7.04578L36.0836 1.38153H51.1099L52.9881 7.04578L53.2294 7.13213C54.3839 7.52932 55.5557 8.01285 56.7102 8.58273L56.9342 8.70362L62.2761 6.02691L72.9082 16.6819L70.2373 22.0353L70.3579 22.2598C70.9265 23.4169 71.409 24.5912 71.8054 25.7482L71.8915 25.99L77.5436 27.8723V42.9309L71.8915 44.8133L71.8054 45.055C71.409 46.212 70.9093 47.3863 70.3579 48.5434L70.2373 48.7679L72.9082 54.1213L62.3451 64.7936L62.3278 64.9663C62.2244 65.657 61.9143 66.3133 61.449 66.8313L61.1388 67.1767L61.449 67.5221C62.0521 68.1956 62.3968 69.059 62.3968 69.9398C62.3968 70.8205 62.0693 71.6839 61.449 72.3574L61.1388 72.7028L61.449 73.0482C62.0521 73.7217 62.3968 74.5851 62.3968 75.4659C62.3968 77.4691 60.777 79.0924 58.778 79.0924H48.6112V80.992C48.594 83.755 46.3538 86 43.5967 86ZM40.3227 80.992C40.3227 82.8052 41.7874 84.2731 43.5967 84.2731C45.4061 84.2731 46.8708 82.8052 46.8708 80.992V78.9888L46.5262 78.8679C45.0787 78.3498 44.1137 76.9855 44.1137 75.4659C44.1137 74.5851 44.4411 73.7217 45.0614 73.0482L45.3716 72.7028L45.0614 72.3574C44.4583 71.6839 44.1137 70.8205 44.1137 69.9398C44.1137 69.059 44.4411 68.1956 45.0614 67.5221L45.3716 67.1767L45.0614 66.8313C44.4583 66.1578 44.1137 65.2944 44.1137 64.4137C44.1137 63.5329 44.4411 62.6695 45.0614 61.996L45.3716 61.6506L45.0614 61.3052C44.4583 60.6317 44.1137 59.7683 44.1137 58.8876C44.1137 58.4904 44.1826 58.1104 44.3377 57.6787L44.579 56.988H40.3227V80.992ZM47.7324 73.5663C46.6812 73.5663 45.8369 74.4125 45.8369 75.4659C45.8369 76.5193 46.6812 77.3655 47.7324 77.3655H58.7608C59.812 77.3655 60.6563 76.5193 60.6563 75.4659C60.6563 74.4125 59.812 73.5663 58.7608 73.5663H47.7324ZM31.5516 77.3655H38.5995V58.2141L34.9291 61.8924L33.7056 60.6663L39.0992 55.261H53.2466C54.2978 55.261 55.1421 54.4149 55.1421 53.3614C55.1421 52.308 54.2978 51.4618 53.2466 51.4618H35.6873L30.1731 56.988H15.5087V73.2209H27.416L31.5516 77.3655ZM8.61596 77.3655H13.7855V54.2249H8.61596V77.3655ZM47.7324 68.0402C46.6812 68.0402 45.8369 68.8863 45.8369 69.9398C45.8369 70.9932 46.6812 71.8394 47.7324 71.8394H58.7608C59.812 71.8394 60.6563 70.9932 60.6563 69.9398C60.6563 68.8863 59.812 68.0402 58.7608 68.0402H47.7324ZM47.7324 62.5141C46.6812 62.5141 45.8369 63.3602 45.8369 64.4137C45.8369 65.4671 46.6812 66.3133 47.7324 66.3133H58.7608C59.812 66.3133 60.6563 65.4671 60.6563 64.4137C60.6563 63.3602 59.812 62.5141 58.7608 62.5141H47.7324ZM43.5967 11.0522C56.9859 11.0522 67.8937 21.9835 67.8937 35.4016C67.8937 42.8273 64.5852 49.7522 58.8125 54.3803L57.8131 55.1747L59.0882 55.2956C60.9665 55.4683 62.3795 57.0225 62.3795 58.8876C62.3795 59.7683 62.0521 60.6317 61.4318 61.3052L61.1216 61.6506L61.4318 61.996C61.5007 62.0651 61.5696 62.1514 61.6213 62.2378L61.9832 62.7213L70.8059 53.8104L68.2901 48.7851L68.4968 48.388C69.2723 46.9028 69.8926 45.4004 70.3751 43.898L70.513 43.4835L75.8204 41.7048V29.1329L70.513 27.3542L70.3751 26.9398C69.9099 25.4373 69.2723 23.9349 68.4968 22.4498L68.2901 22.0526L70.8232 17.01L61.9487 8.11647L56.9342 10.6378L56.5379 10.4305C55.056 9.65341 53.5396 9.03173 52.0576 8.54819L51.644 8.41004L49.8692 3.10843H37.3243L35.5494 8.42731L35.1359 8.56546C33.6367 9.03173 32.1375 9.67068 30.6556 10.4478L30.2592 10.655L25.2448 8.11647L16.3703 17.01L18.8862 22.0353L18.6794 22.4325C17.904 23.9177 17.2836 25.4373 16.8011 26.9225L16.6633 27.3369L11.3731 29.1157V41.6875L16.6805 43.4663L16.8183 43.8807C17.2836 45.3831 17.9212 46.8855 18.6966 48.3707L18.9034 48.7851L15.3536 55.261H29.4838L28.3465 54.3458C22.591 49.6831 19.2997 42.7928 19.2997 35.4016C19.2997 21.9835 30.2075 11.0522 43.5967 11.0522ZM47.7324 56.988C46.6812 56.988 45.8369 57.8341 45.8369 58.8876C45.8369 59.941 46.6812 60.7871 47.7324 60.7871H58.7608C59.812 60.7871 60.6563 59.941 60.6563 58.8876C60.6563 57.8341 59.812 56.988 58.7608 56.988H47.7324ZM43.5967 12.7791C31.1553 12.7791 21.0229 22.9333 21.0229 35.4016C21.0229 42.6201 24.521 49.4759 30.3799 53.7241L30.7417 53.9831L33.4816 51.2374L32.9646 50.892C27.864 47.3691 24.814 41.5839 24.814 35.4016C24.814 25.0229 33.2404 16.5783 43.5967 16.5783C53.9531 16.5783 62.3795 25.0229 62.3795 35.4016C62.3795 40.9968 59.9154 46.2639 55.6074 49.8558L55.1421 50.253L55.6074 50.6502C56.245 51.2028 56.6758 51.9627 56.8136 52.7916L56.9515 53.6723L57.6407 53.1197C63.0688 48.8024 66.1705 42.3438 66.1705 35.4016C66.1705 22.9333 56.0382 12.7791 43.5967 12.7791ZM43.5967 18.3052C34.1881 18.3052 26.5371 25.9727 26.5371 35.4016C26.5371 41.204 29.4666 46.5574 34.3949 49.7349L34.7395 49.9594L34.9635 49.7349H38.5995V42.6719L33.0853 37.1458V29.8755C33.0853 27.1124 35.3254 24.8675 38.0825 24.8675H40.3227V32.2759L41.2015 33.1566H46.0092L46.888 32.2759V24.8675H49.1282C51.8853 24.8675 54.1254 27.1124 54.1254 29.8755V37.1458L48.6112 42.6719V49.7349H52.8503L52.9881 49.6486C57.8131 46.4711 60.6908 41.1349 60.6908 35.4016C60.6563 25.9727 53.0054 18.3052 43.5967 18.3052ZM40.3227 49.7349H46.8708V43.1727H40.3227V49.7349ZM38.0825 26.5944C36.2732 26.5944 34.8085 28.0622 34.8085 29.8755V36.4205L39.8229 41.4458H47.3878L52.4022 36.4205V29.8755C52.4022 28.0622 50.9375 26.5944 49.1282 26.5944H48.6112V33.0012L46.7157 34.8835H40.495L38.5995 33.0012V26.5944H38.0825ZM79.9561 73.5663V71.8394H81.6793V73.5663H79.9561ZM79.9561 66.6586V64.9317H81.6793V66.6586H79.9561ZM79.9561 59.751V58.0241H81.6793V59.751H79.9561ZM2.75711 27.9759V26.249H4.4803V27.9759H2.75711ZM2.75711 21.0683V19.3414H4.4803V21.0683H2.75711ZM2.75711 14.1606V12.4337H4.4803V14.1606H2.75711ZM3.6187 7.25301C1.6198 7.25301 0 5.62972 0 3.62651C0 1.62329 1.6198 0 3.6187 0C5.6176 0 7.2374 1.62329 7.2374 3.62651C7.2374 5.62972 5.6176 7.25301 3.6187 7.25301ZM3.6187 1.72691C2.56755 1.72691 1.72319 2.57309 1.72319 3.62651C1.72319 4.67992 2.56755 5.5261 3.6187 5.5261C4.66985 5.5261 5.51421 4.67992 5.51421 3.62651C5.51421 2.57309 4.66985 1.72691 3.6187 1.72691Z" fill="#4E4E4E"/>
</svg>
