<svg width="63" height="86" viewBox="0 0 63 86" fill="none" xmlns="http://www.w3.org/2000/svg">
<mask id="path-1-inside-1" fill="white">
<path d="M18.8367 86C16.8444 86 15.2143 84.3602 15.2143 82.3559C15.2143 81.3356 15.6128 80.3517 16.3372 79.6411L16.8082 79.1856L16.3916 78.6754C15.8844 78.0377 15.5946 77.236 15.5946 76.4161C15.5765 75.2682 16.1018 74.2114 17.0255 73.5555L17.3696 73.3186L17.3334 72.8996C16.9893 68.964 13.8559 64.4636 11.3383 60.8377L11.3202 60.8195C10.0885 59.0521 8.92934 57.3941 8.05995 55.8271C3.07908 47.0085 0 36.6958 0 28.9157C0 12.6996 13.6929 0 31.1531 0C31.5515 0 31.8776 0.327966 31.8776 0.728814V24.725H39.1224V15.9246L38.6334 15.7606C37.601 15.3962 36.786 14.5763 36.4237 13.5377C35.7536 11.6428 36.7497 9.56568 38.6334 8.89153C39.0319 8.74576 39.4304 8.67288 39.8469 8.67288C41.3865 8.67288 42.7449 9.65678 43.2702 11.0962C43.9403 12.9911 42.9441 15.0682 41.0605 15.7424L40.5714 15.9064V24.7068H44.1939C44.5923 24.7068 44.9184 25.0347 44.9184 25.4356V29.0797H50.7143V23.1945L50.2253 23.0305C49.1929 22.6661 48.3778 21.8462 48.0156 20.8076C47.3454 18.9127 48.3416 16.8356 50.2253 16.1614C50.6237 16.0157 51.0222 15.9428 51.4388 15.9428C52.9783 15.9428 54.3367 16.9267 54.862 18.3661C55.5321 20.261 54.536 22.3381 52.6523 23.0123L52.1633 23.1763V29.7903C52.1633 30.1911 51.8372 30.5191 51.4388 30.5191H44.9184V37.8072H55.1156L55.2786 37.3153C55.7857 35.8759 57.1441 34.8919 58.6837 34.8919C60.2051 34.8919 61.5816 35.8576 62.0888 37.3153C62.4148 38.2263 62.3605 39.2102 61.9439 40.103C61.5273 40.9775 60.8028 41.6517 59.8972 41.9614C59.4987 42.1072 59.1003 42.1801 58.6837 42.1801C57.1622 42.1801 55.7857 41.2144 55.2786 39.7568L55.1156 39.2648H44.9184V42.9089C44.9184 43.3097 44.5923 43.6377 44.1939 43.6377H37.6735V48.0106H42.7449C43.1434 48.0106 43.4694 48.3386 43.4694 48.7394V52.4746L43.9584 52.6386C44.9908 53.003 45.8059 53.8229 46.1681 54.8614C46.4941 55.7725 46.4398 56.7746 46.0232 57.6492C45.6066 58.5237 44.8821 59.1979 43.9584 59.5076C43.56 59.6534 43.1615 59.7263 42.7449 59.7263C41.2054 59.7263 39.8469 58.7424 39.3217 57.303C38.9957 56.3919 39.05 55.3898 39.4666 54.5153C39.8832 53.6407 40.6077 52.9665 41.5314 52.6568L42.0204 52.4928V49.5229H36.949C36.5505 49.5229 36.2245 49.1949 36.2245 48.7941V43.6924H31.8776V72.8814H43.1253C43.1796 72.8814 43.2339 72.8814 43.2702 72.8814C45.1719 72.8814 46.7115 74.4301 46.7115 76.325C46.7115 77.1631 46.4217 78.0013 45.8964 78.6572L45.4798 79.1856L45.9508 79.6411C46.6571 80.3153 47.0556 81.2809 47.0556 82.2466V82.3013C47.0556 83.2852 46.6934 84.2144 46.0051 84.9068C45.3168 85.5992 44.4112 86 43.4332 86H18.8367ZM16.6633 82.3013C16.6452 83.522 17.6051 84.5242 18.8186 84.5424H43.4694C44.6648 84.5424 45.6247 83.5767 45.6429 82.3742C45.6429 82.3559 45.6429 82.3377 45.6429 82.3195C45.661 81.0987 44.701 80.0784 43.4875 80.0602H18.8367C17.6413 80.0602 16.6814 81.0258 16.6633 82.2284C16.6633 82.2466 16.6633 82.2648 16.6633 82.3013ZM19.0722 74.339C17.9855 74.339 17.0798 75.1953 17.0436 76.2886C17.0436 76.3068 17.0436 76.325 17.0436 76.3614C17.0255 77.5822 17.9855 78.5843 19.199 78.6025H43.1071C44.3026 78.6025 45.2806 77.6187 45.2806 76.4161C45.2806 76.3614 45.2806 76.2703 45.2806 76.1975C45.1901 75.1225 44.3026 74.3208 43.2339 74.3208C43.1796 74.3208 43.1253 74.3208 43.089 74.3208H19.2352C19.199 74.3208 19.1809 74.3208 19.1446 74.3208C19.1265 74.339 19.0903 74.339 19.0722 74.339ZM29.6679 1.49407C13.5842 2.18644 1.44898 13.975 1.44898 28.9157C1.44898 36.3496 4.52806 46.6259 9.29158 55.1165C10.1429 56.6288 11.2839 58.2686 12.4974 59.9996C15.1418 63.7894 18.1485 68.0894 18.7099 72.2619L18.8005 72.8996H30.4286V55.3534L29.7584 55.2987C29.3056 55.2623 28.9615 55.2258 28.5992 55.1894C28.2913 55.153 28.0378 54.9161 27.9834 54.6246L27.4401 52.0555L26.9872 51.928C26.6431 51.8369 26.2809 51.7458 25.9367 51.6364L25.502 51.5089L23.7452 53.4767C23.6003 53.6225 23.4191 53.7136 23.2018 53.7136C23.1112 53.7136 23.0026 53.6953 22.912 53.6589C21.3543 52.9847 19.8691 52.1102 18.5107 51.0716C18.2571 50.8894 18.1666 50.5614 18.2571 50.2517L19.0722 47.7737L18.7281 47.464C18.4745 47.2271 18.2209 46.972 17.9673 46.6987L17.6594 46.3708L15.1962 47.1907C15.1237 47.2089 15.0513 47.2271 14.9788 47.2271C14.7434 47.2271 14.526 47.1178 14.3992 46.9356C13.3668 45.5691 12.4974 44.075 11.8273 42.5081C11.7005 42.2165 11.773 41.8886 12.0084 41.6881L13.9645 39.9208L13.8378 39.4835C13.7291 39.1373 13.6385 38.7911 13.5661 38.4449L13.4574 37.9894L10.7406 37.4428C10.3964 37.3699 10.161 37.0784 10.161 36.7322V31.7581C10.161 31.4119 10.4145 31.1203 10.7406 31.0475L13.4574 30.5008L13.5661 30.0453C13.6566 29.6992 13.7472 29.353 13.8378 29.0068L13.9645 28.5695L12.0084 26.8021C11.773 26.6017 11.7005 26.2555 11.8273 25.9822C12.4974 24.4153 13.3668 22.9212 14.3992 21.5547C14.5441 21.3725 14.7615 21.2631 14.9788 21.2631C15.0513 21.2631 15.1237 21.2814 15.1962 21.2996L17.6594 22.1195L17.9673 21.7915C18.2209 21.5182 18.4745 21.2631 18.7281 21.0263L19.0722 20.7165L18.2571 18.2386C18.1666 17.947 18.2571 17.6191 18.5107 17.4369C19.8691 16.3983 21.3543 15.5237 22.912 14.8496C23.0026 14.8131 23.0931 14.7949 23.2018 14.7949C23.401 14.7949 23.6003 14.886 23.7452 15.0318L25.502 16.9996L25.9367 16.872C26.2809 16.7627 26.6431 16.6716 26.9872 16.5805L27.4401 16.4712L27.9834 13.9021C28.0559 13.5924 28.2913 13.3737 28.5992 13.3373C28.9615 13.3008 29.3237 13.2644 29.7584 13.228L30.4286 13.1733V1.45763L29.6679 1.49407ZM42.7449 53.8775C41.5495 53.8775 40.5714 54.8614 40.5714 56.064C40.5714 57.2665 41.5495 58.2504 42.7449 58.2504C43.9403 58.2504 44.9184 57.2665 44.9184 56.064C44.9184 54.8614 43.9403 53.8775 42.7449 53.8775ZM25.2847 49.9237C25.3753 49.9237 25.4477 49.942 25.5383 49.9602C26.3895 50.2699 27.277 50.5068 28.1827 50.6708C28.4725 50.7254 28.7079 50.9441 28.7622 51.2356L28.9977 52.3835L30.4286 52.2377V46.5712L29.7765 46.4983C23.5459 45.7877 18.8367 40.5038 18.8367 34.1814C18.8367 27.8771 23.5459 22.575 29.7765 21.8826L30.4286 21.8097V16.1614L28.9977 16.0157L28.7622 17.1636C28.7079 17.4551 28.4725 17.6737 28.1827 17.7284C27.277 17.8924 26.3895 18.1292 25.5383 18.439C25.4658 18.4572 25.3753 18.4754 25.3028 18.4754C25.1036 18.4754 24.9043 18.3843 24.7594 18.2386L23.0207 16.289L22.5316 16.5441C21.7528 16.9449 20.9921 17.3822 20.2676 17.8742L19.8148 18.1839L20.6117 20.6254C20.7023 20.9169 20.6117 21.2085 20.3944 21.4089C19.7061 22.0102 19.0541 22.6661 18.4564 23.3585C18.3115 23.5225 18.1122 23.6136 17.8949 23.6136C17.8225 23.6136 17.75 23.5953 17.6776 23.5771L15.2505 22.7754L14.9426 23.2309C14.4536 23.9597 14.0008 24.725 13.6204 25.5085L13.3668 26.0004L15.3048 27.7496C15.5222 27.95 15.6128 28.2597 15.5041 28.5331C15.1962 29.3894 14.9607 30.2822 14.7977 31.1932C14.7434 31.4847 14.526 31.7216 14.2181 31.7763L11.5918 32.3229V36.0945L14.2 36.6229C14.4898 36.6775 14.7253 36.9144 14.7796 37.2059C14.9426 38.0987 15.1781 39.0097 15.486 39.8661C15.5765 40.1394 15.5041 40.4492 15.2867 40.6496L13.3487 42.3987L13.6023 42.8907C14.0008 43.6742 14.4355 44.4394 14.9245 45.1682L15.2324 45.6237L17.6594 44.822C17.7319 44.8038 17.8043 44.7856 17.8768 44.7856C18.0941 44.7856 18.2934 44.8767 18.4383 45.0407C19.0179 45.7331 19.6699 46.389 20.3763 46.9903C20.6117 47.1907 20.6842 47.5004 20.5936 47.7737L19.7967 50.2153L20.2495 50.525C20.974 51.017 21.7347 51.4725 22.5135 51.8551L23.0026 52.1102L24.7413 50.1606C24.8862 50.0148 25.0855 49.9237 25.2847 49.9237ZM29.5954 23.3949C24.85 24.0691 21.0645 27.8771 20.3944 32.6508C19.5431 38.6089 23.6727 44.1479 29.5954 45.0042L30.4286 45.1318V23.2674L29.5954 23.3949ZM31.8776 42.2165H43.4694V26.1826H31.8776V42.2165ZM58.6837 36.386C57.4883 36.386 56.5102 37.3699 56.5102 38.5725C56.5102 39.775 57.4883 40.7589 58.6837 40.7589C59.8791 40.7589 60.8571 39.775 60.8571 38.5725C60.8571 37.3699 59.8791 36.386 58.6837 36.386ZM51.4388 17.4369C50.2434 17.4369 49.2653 18.4208 49.2653 19.6233C49.2653 20.8258 50.2434 21.8097 51.4388 21.8097C52.6342 21.8097 53.6122 20.8258 53.6122 19.6233C53.6122 18.4208 52.6342 17.4369 51.4388 17.4369ZM39.8469 10.1487C38.6515 10.1487 37.6735 11.1326 37.6735 12.3352C37.6735 13.5377 38.6515 14.5216 39.8469 14.5216C41.0423 14.5216 42.0204 13.5377 42.0204 12.3352C42.0204 11.1326 41.0423 10.1487 39.8469 10.1487ZM44.7191 68.3445C44.9365 67.8525 45.1719 67.3788 45.4074 66.8869L46.6753 67.5975C46.4579 68.0165 46.2587 68.4538 46.0594 68.8729L44.7191 68.3445ZM47.7077 63.0606C47.9612 62.6597 48.251 62.2407 48.5589 61.7852L49.7543 62.6233C49.5008 63.0059 49.211 63.425 48.9212 63.8623L47.7077 63.0606ZM51.0765 58.1411C51.3301 57.7585 51.6199 57.3394 51.8916 56.9021L53.1232 57.6856C52.8696 58.0682 52.598 58.4873 52.2719 58.9792L51.0765 58.1411ZM54.0832 53.1305C54.3005 52.6932 54.536 52.2559 54.7533 51.8004L56.0574 52.4199C55.8401 52.8754 55.6046 53.3492 55.3691 53.8047L54.0832 53.1305ZM56.5464 47.792C56.7276 47.3364 56.9087 46.8809 57.0898 46.4254L58.4482 46.9356C58.2671 47.4093 58.0679 47.9013 57.8867 48.375L56.5464 47.792ZM60.8028 30.8106C60.839 30.3186 60.8571 29.8449 60.8571 29.3712L62.3061 29.353C62.3061 29.8631 62.2699 30.3915 62.2518 30.9381L60.8028 30.8106ZM60.5673 25.0347C60.4949 24.561 60.4225 24.0873 60.3138 23.6318L61.7265 23.3038C61.8352 23.8322 61.9258 24.3424 61.9982 24.8708L60.5673 25.0347ZM59.1184 19.4593C58.9554 19.022 58.7561 18.5665 58.575 18.1475L59.8791 17.5097C60.0964 18.0017 60.2957 18.4754 60.4949 18.9856L59.1184 19.4593ZM56.4559 14.3576C56.1842 13.9568 55.9125 13.5742 55.6227 13.1915L56.7638 12.2805C57.0717 12.6996 57.3796 13.1369 57.6875 13.5742L56.4559 14.3576ZM52.7791 9.93009C52.435 9.60212 52.0908 9.27415 51.7286 8.96441L52.6523 7.83475C53.0508 8.18093 53.4311 8.54534 53.8115 8.90975L52.7791 9.93009ZM48.251 6.34068C47.8526 6.08559 47.436 5.83051 47.0194 5.59364L47.7077 4.31822C48.1605 4.57331 48.6133 4.84661 49.048 5.13814L48.251 6.34068ZM43.1253 3.71695C42.6906 3.53475 42.2378 3.37076 41.785 3.225L42.2196 1.84025C42.7268 2.00424 43.2158 2.20466 43.6867 2.38686L43.1253 3.71695ZM37.5829 2.07712C37.112 1.98602 36.6411 1.89492 36.1702 1.82203L36.3513 0.382627C36.8765 0.455509 37.3837 0.54661 37.8908 0.655932L37.5829 2.07712Z"/>
</mask>
<path d="M18.8367 86C16.8444 86 15.2143 84.3602 15.2143 82.3559C15.2143 81.3356 15.6128 80.3517 16.3372 79.6411L16.8082 79.1856L16.3916 78.6754C15.8844 78.0377 15.5946 77.236 15.5946 76.4161C15.5765 75.2682 16.1018 74.2114 17.0255 73.5555L17.3696 73.3186L17.3334 72.8996C16.9893 68.964 13.8559 64.4636 11.3383 60.8377L11.3202 60.8195C10.0885 59.0521 8.92934 57.3941 8.05995 55.8271C3.07908 47.0085 0 36.6958 0 28.9157C0 12.6996 13.6929 0 31.1531 0C31.5515 0 31.8776 0.327966 31.8776 0.728814V24.725H39.1224V15.9246L38.6334 15.7606C37.601 15.3962 36.786 14.5763 36.4237 13.5377C35.7536 11.6428 36.7497 9.56568 38.6334 8.89153C39.0319 8.74576 39.4304 8.67288 39.8469 8.67288C41.3865 8.67288 42.7449 9.65678 43.2702 11.0962C43.9403 12.9911 42.9441 15.0682 41.0605 15.7424L40.5714 15.9064V24.7068H44.1939C44.5923 24.7068 44.9184 25.0347 44.9184 25.4356V29.0797H50.7143V23.1945L50.2253 23.0305C49.1929 22.6661 48.3778 21.8462 48.0156 20.8076C47.3454 18.9127 48.3416 16.8356 50.2253 16.1614C50.6237 16.0157 51.0222 15.9428 51.4388 15.9428C52.9783 15.9428 54.3367 16.9267 54.862 18.3661C55.5321 20.261 54.536 22.3381 52.6523 23.0123L52.1633 23.1763V29.7903C52.1633 30.1911 51.8372 30.5191 51.4388 30.5191H44.9184V37.8072H55.1156L55.2786 37.3153C55.7857 35.8759 57.1441 34.8919 58.6837 34.8919C60.2051 34.8919 61.5816 35.8576 62.0888 37.3153C62.4148 38.2263 62.3605 39.2102 61.9439 40.103C61.5273 40.9775 60.8028 41.6517 59.8972 41.9614C59.4987 42.1072 59.1003 42.1801 58.6837 42.1801C57.1622 42.1801 55.7857 41.2144 55.2786 39.7568L55.1156 39.2648H44.9184V42.9089C44.9184 43.3097 44.5923 43.6377 44.1939 43.6377H37.6735V48.0106H42.7449C43.1434 48.0106 43.4694 48.3386 43.4694 48.7394V52.4746L43.9584 52.6386C44.9908 53.003 45.8059 53.8229 46.1681 54.8614C46.4941 55.7725 46.4398 56.7746 46.0232 57.6492C45.6066 58.5237 44.8821 59.1979 43.9584 59.5076C43.56 59.6534 43.1615 59.7263 42.7449 59.7263C41.2054 59.7263 39.8469 58.7424 39.3217 57.303C38.9957 56.3919 39.05 55.3898 39.4666 54.5153C39.8832 53.6407 40.6077 52.9665 41.5314 52.6568L42.0204 52.4928V49.5229H36.949C36.5505 49.5229 36.2245 49.1949 36.2245 48.7941V43.6924H31.8776V72.8814H43.1253C43.1796 72.8814 43.2339 72.8814 43.2702 72.8814C45.1719 72.8814 46.7115 74.4301 46.7115 76.325C46.7115 77.1631 46.4217 78.0013 45.8964 78.6572L45.4798 79.1856L45.9508 79.6411C46.6571 80.3153 47.0556 81.2809 47.0556 82.2466V82.3013C47.0556 83.2852 46.6934 84.2144 46.0051 84.9068C45.3168 85.5992 44.4112 86 43.4332 86H18.8367ZM16.6633 82.3013C16.6452 83.522 17.6051 84.5242 18.8186 84.5424H43.4694C44.6648 84.5424 45.6247 83.5767 45.6429 82.3742C45.6429 82.3559 45.6429 82.3377 45.6429 82.3195C45.661 81.0987 44.701 80.0784 43.4875 80.0602H18.8367C17.6413 80.0602 16.6814 81.0258 16.6633 82.2284C16.6633 82.2466 16.6633 82.2648 16.6633 82.3013ZM19.0722 74.339C17.9855 74.339 17.0798 75.1953 17.0436 76.2886C17.0436 76.3068 17.0436 76.325 17.0436 76.3614C17.0255 77.5822 17.9855 78.5843 19.199 78.6025H43.1071C44.3026 78.6025 45.2806 77.6187 45.2806 76.4161C45.2806 76.3614 45.2806 76.2703 45.2806 76.1975C45.1901 75.1225 44.3026 74.3208 43.2339 74.3208C43.1796 74.3208 43.1253 74.3208 43.089 74.3208H19.2352C19.199 74.3208 19.1809 74.3208 19.1446 74.3208C19.1265 74.339 19.0903 74.339 19.0722 74.339ZM29.6679 1.49407C13.5842 2.18644 1.44898 13.975 1.44898 28.9157C1.44898 36.3496 4.52806 46.6259 9.29158 55.1165C10.1429 56.6288 11.2839 58.2686 12.4974 59.9996C15.1418 63.7894 18.1485 68.0894 18.7099 72.2619L18.8005 72.8996H30.4286V55.3534L29.7584 55.2987C29.3056 55.2623 28.9615 55.2258 28.5992 55.1894C28.2913 55.153 28.0378 54.9161 27.9834 54.6246L27.4401 52.0555L26.9872 51.928C26.6431 51.8369 26.2809 51.7458 25.9367 51.6364L25.502 51.5089L23.7452 53.4767C23.6003 53.6225 23.4191 53.7136 23.2018 53.7136C23.1112 53.7136 23.0026 53.6953 22.912 53.6589C21.3543 52.9847 19.8691 52.1102 18.5107 51.0716C18.2571 50.8894 18.1666 50.5614 18.2571 50.2517L19.0722 47.7737L18.7281 47.464C18.4745 47.2271 18.2209 46.972 17.9673 46.6987L17.6594 46.3708L15.1962 47.1907C15.1237 47.2089 15.0513 47.2271 14.9788 47.2271C14.7434 47.2271 14.526 47.1178 14.3992 46.9356C13.3668 45.5691 12.4974 44.075 11.8273 42.5081C11.7005 42.2165 11.773 41.8886 12.0084 41.6881L13.9645 39.9208L13.8378 39.4835C13.7291 39.1373 13.6385 38.7911 13.5661 38.4449L13.4574 37.9894L10.7406 37.4428C10.3964 37.3699 10.161 37.0784 10.161 36.7322V31.7581C10.161 31.4119 10.4145 31.1203 10.7406 31.0475L13.4574 30.5008L13.5661 30.0453C13.6566 29.6992 13.7472 29.353 13.8378 29.0068L13.9645 28.5695L12.0084 26.8021C11.773 26.6017 11.7005 26.2555 11.8273 25.9822C12.4974 24.4153 13.3668 22.9212 14.3992 21.5547C14.5441 21.3725 14.7615 21.2631 14.9788 21.2631C15.0513 21.2631 15.1237 21.2814 15.1962 21.2996L17.6594 22.1195L17.9673 21.7915C18.2209 21.5182 18.4745 21.2631 18.7281 21.0263L19.0722 20.7165L18.2571 18.2386C18.1666 17.947 18.2571 17.6191 18.5107 17.4369C19.8691 16.3983 21.3543 15.5237 22.912 14.8496C23.0026 14.8131 23.0931 14.7949 23.2018 14.7949C23.401 14.7949 23.6003 14.886 23.7452 15.0318L25.502 16.9996L25.9367 16.872C26.2809 16.7627 26.6431 16.6716 26.9872 16.5805L27.4401 16.4712L27.9834 13.9021C28.0559 13.5924 28.2913 13.3737 28.5992 13.3373C28.9615 13.3008 29.3237 13.2644 29.7584 13.228L30.4286 13.1733V1.45763L29.6679 1.49407ZM42.7449 53.8775C41.5495 53.8775 40.5714 54.8614 40.5714 56.064C40.5714 57.2665 41.5495 58.2504 42.7449 58.2504C43.9403 58.2504 44.9184 57.2665 44.9184 56.064C44.9184 54.8614 43.9403 53.8775 42.7449 53.8775ZM25.2847 49.9237C25.3753 49.9237 25.4477 49.942 25.5383 49.9602C26.3895 50.2699 27.277 50.5068 28.1827 50.6708C28.4725 50.7254 28.7079 50.9441 28.7622 51.2356L28.9977 52.3835L30.4286 52.2377V46.5712L29.7765 46.4983C23.5459 45.7877 18.8367 40.5038 18.8367 34.1814C18.8367 27.8771 23.5459 22.575 29.7765 21.8826L30.4286 21.8097V16.1614L28.9977 16.0157L28.7622 17.1636C28.7079 17.4551 28.4725 17.6737 28.1827 17.7284C27.277 17.8924 26.3895 18.1292 25.5383 18.439C25.4658 18.4572 25.3753 18.4754 25.3028 18.4754C25.1036 18.4754 24.9043 18.3843 24.7594 18.2386L23.0207 16.289L22.5316 16.5441C21.7528 16.9449 20.9921 17.3822 20.2676 17.8742L19.8148 18.1839L20.6117 20.6254C20.7023 20.9169 20.6117 21.2085 20.3944 21.4089C19.7061 22.0102 19.0541 22.6661 18.4564 23.3585C18.3115 23.5225 18.1122 23.6136 17.8949 23.6136C17.8225 23.6136 17.75 23.5953 17.6776 23.5771L15.2505 22.7754L14.9426 23.2309C14.4536 23.9597 14.0008 24.725 13.6204 25.5085L13.3668 26.0004L15.3048 27.7496C15.5222 27.95 15.6128 28.2597 15.5041 28.5331C15.1962 29.3894 14.9607 30.2822 14.7977 31.1932C14.7434 31.4847 14.526 31.7216 14.2181 31.7763L11.5918 32.3229V36.0945L14.2 36.6229C14.4898 36.6775 14.7253 36.9144 14.7796 37.2059C14.9426 38.0987 15.1781 39.0097 15.486 39.8661C15.5765 40.1394 15.5041 40.4492 15.2867 40.6496L13.3487 42.3987L13.6023 42.8907C14.0008 43.6742 14.4355 44.4394 14.9245 45.1682L15.2324 45.6237L17.6594 44.822C17.7319 44.8038 17.8043 44.7856 17.8768 44.7856C18.0941 44.7856 18.2934 44.8767 18.4383 45.0407C19.0179 45.7331 19.6699 46.389 20.3763 46.9903C20.6117 47.1907 20.6842 47.5004 20.5936 47.7737L19.7967 50.2153L20.2495 50.525C20.974 51.017 21.7347 51.4725 22.5135 51.8551L23.0026 52.1102L24.7413 50.1606C24.8862 50.0148 25.0855 49.9237 25.2847 49.9237ZM29.5954 23.3949C24.85 24.0691 21.0645 27.8771 20.3944 32.6508C19.5431 38.6089 23.6727 44.1479 29.5954 45.0042L30.4286 45.1318V23.2674L29.5954 23.3949ZM31.8776 42.2165H43.4694V26.1826H31.8776V42.2165ZM58.6837 36.386C57.4883 36.386 56.5102 37.3699 56.5102 38.5725C56.5102 39.775 57.4883 40.7589 58.6837 40.7589C59.8791 40.7589 60.8571 39.775 60.8571 38.5725C60.8571 37.3699 59.8791 36.386 58.6837 36.386ZM51.4388 17.4369C50.2434 17.4369 49.2653 18.4208 49.2653 19.6233C49.2653 20.8258 50.2434 21.8097 51.4388 21.8097C52.6342 21.8097 53.6122 20.8258 53.6122 19.6233C53.6122 18.4208 52.6342 17.4369 51.4388 17.4369ZM39.8469 10.1487C38.6515 10.1487 37.6735 11.1326 37.6735 12.3352C37.6735 13.5377 38.6515 14.5216 39.8469 14.5216C41.0423 14.5216 42.0204 13.5377 42.0204 12.3352C42.0204 11.1326 41.0423 10.1487 39.8469 10.1487ZM44.7191 68.3445C44.9365 67.8525 45.1719 67.3788 45.4074 66.8869L46.6753 67.5975C46.4579 68.0165 46.2587 68.4538 46.0594 68.8729L44.7191 68.3445ZM47.7077 63.0606C47.9612 62.6597 48.251 62.2407 48.5589 61.7852L49.7543 62.6233C49.5008 63.0059 49.211 63.425 48.9212 63.8623L47.7077 63.0606ZM51.0765 58.1411C51.3301 57.7585 51.6199 57.3394 51.8916 56.9021L53.1232 57.6856C52.8696 58.0682 52.598 58.4873 52.2719 58.9792L51.0765 58.1411ZM54.0832 53.1305C54.3005 52.6932 54.536 52.2559 54.7533 51.8004L56.0574 52.4199C55.8401 52.8754 55.6046 53.3492 55.3691 53.8047L54.0832 53.1305ZM56.5464 47.792C56.7276 47.3364 56.9087 46.8809 57.0898 46.4254L58.4482 46.9356C58.2671 47.4093 58.0679 47.9013 57.8867 48.375L56.5464 47.792ZM60.8028 30.8106C60.839 30.3186 60.8571 29.8449 60.8571 29.3712L62.3061 29.353C62.3061 29.8631 62.2699 30.3915 62.2518 30.9381L60.8028 30.8106ZM60.5673 25.0347C60.4949 24.561 60.4225 24.0873 60.3138 23.6318L61.7265 23.3038C61.8352 23.8322 61.9258 24.3424 61.9982 24.8708L60.5673 25.0347ZM59.1184 19.4593C58.9554 19.022 58.7561 18.5665 58.575 18.1475L59.8791 17.5097C60.0964 18.0017 60.2957 18.4754 60.4949 18.9856L59.1184 19.4593ZM56.4559 14.3576C56.1842 13.9568 55.9125 13.5742 55.6227 13.1915L56.7638 12.2805C57.0717 12.6996 57.3796 13.1369 57.6875 13.5742L56.4559 14.3576ZM52.7791 9.93009C52.435 9.60212 52.0908 9.27415 51.7286 8.96441L52.6523 7.83475C53.0508 8.18093 53.4311 8.54534 53.8115 8.90975L52.7791 9.93009ZM48.251 6.34068C47.8526 6.08559 47.436 5.83051 47.0194 5.59364L47.7077 4.31822C48.1605 4.57331 48.6133 4.84661 49.048 5.13814L48.251 6.34068ZM43.1253 3.71695C42.6906 3.53475 42.2378 3.37076 41.785 3.225L42.2196 1.84025C42.7268 2.00424 43.2158 2.20466 43.6867 2.38686L43.1253 3.71695ZM37.5829 2.07712C37.112 1.98602 36.6411 1.89492 36.1702 1.82203L36.3513 0.382627C36.8765 0.455509 37.3837 0.54661 37.8908 0.655932L37.5829 2.07712Z" fill="#009091" stroke="black" stroke-width="2" mask="url(#path-1-inside-1)"/>
</svg>
