<svg width="86" height="86" viewBox="0 0 86 86" fill="none" xmlns="http://www.w3.org/2000/svg">
<path d="M0 86V82.3318C0 79.4535 1.93061 76.8735 4.70367 76.0837L9.82857 74.6269V73.5914L9.61796 73.4335C7.98571 72.2049 7.02041 70.2743 7.02041 68.2735V65.4653C7.02041 63.6575 7.79265 61.9025 9.12653 60.6739C10.32 59.5682 11.882 58.9714 13.5318 58.9714C13.7249 58.9714 13.918 58.9714 14.0935 58.989C17.4106 59.2698 20.0082 62.2535 20.0082 65.7461V68.2735C20.0082 70.2743 19.0429 72.2049 17.4106 73.4335L17.2 73.5914V74.6269L22.3249 76.0837C23.6763 76.4698 24.8873 77.3122 25.7298 78.4531L26.151 79.0147L26.5722 78.4531C27.4147 77.3122 28.6257 76.4698 29.9771 76.0837L35.102 74.6269V73.5914L34.8914 73.4335C33.2592 72.2049 32.2939 70.2743 32.2939 68.2735V65.4653C32.2939 63.6575 33.0661 61.9025 34.4 60.6739C35.5935 59.5682 37.1555 58.9714 38.8053 58.9714C38.9984 58.9714 39.1914 58.9714 39.3669 58.989C42.6841 59.2698 45.2816 62.2535 45.2816 65.7461V68.2735C45.2816 70.2743 44.3163 72.2049 42.6841 73.4335L42.4735 73.5914V74.6269L47.5984 76.0837C48.9498 76.4698 50.1608 77.3122 51.0033 78.4531L51.4245 79.0147L51.8457 78.4531C52.6882 77.3122 53.8992 76.4698 55.2506 76.0837L60.3755 74.6269V73.5914L60.1649 73.4335C58.5326 72.2049 57.5673 70.2743 57.5673 68.2735V66.3429H50.5469V41.0694H47.7388V33.698H50.5469V29.1347C50.5469 26.151 52.5653 23.5535 55.4612 22.8339L61.7796 21.2543V19.8853L61.5514 19.7273C59.0592 17.9898 57.5673 15.1465 57.5673 12.1102V9.30204C57.5673 6.75714 58.5678 4.38775 60.3931 2.63265C62.1657 0.912653 64.3771 0 66.8167 0C66.922 0 67.0449 0 67.1502 0C72.1171 0.157959 76.1714 4.49306 76.1714 9.65306V12.1102C76.1714 15.1465 74.6796 17.9898 72.1873 19.7449L71.9592 19.9029V21.2543L78.2775 22.8339C81.1735 23.5535 83.1918 26.151 83.1918 29.1347V33.698H86V41.0694H83.1918V66.3429H70.5551V68.2735C70.5551 70.2743 69.5898 72.2049 67.9576 73.4335L67.7469 73.5914V74.6269L72.8718 76.0837C75.6449 76.8735 77.5755 79.4535 77.5755 82.3318V86H0ZM75.8204 84.2449V82.3318C75.8204 80.2257 74.3988 78.3478 72.3804 77.7686L65.9918 75.9608V72.6086L66.4306 72.3629C67.9224 71.5029 68.8 69.9759 68.8 68.291V65.7812C68.8 63.1837 66.9045 60.9722 64.4824 60.7792C64.342 60.7616 64.2016 60.7616 64.0612 60.7616C62.8678 60.7616 61.7445 61.2004 60.8669 62.0078C59.8841 62.9029 59.3224 64.1841 59.3224 65.5004V68.3086C59.3224 69.9935 60.2175 71.5204 61.6918 72.3804L62.1306 72.6261V75.9784L55.742 77.8037C53.7237 78.3829 52.302 80.2608 52.302 82.3669V84.2449H75.8204ZM50.5469 84.2449V82.3318C50.5469 80.2257 49.1253 78.3478 47.1069 77.7686L40.7184 75.9608V72.6086L41.1571 72.3629C42.649 71.5029 43.5265 69.9759 43.5265 68.291V65.7812C43.5265 63.1837 41.631 60.9722 39.209 60.7792C39.0686 60.7616 38.9282 60.7616 38.7878 60.7616C37.5943 60.7616 36.471 61.2004 35.5935 62.0078C34.6106 62.9029 34.049 64.1841 34.049 65.5004V68.3086C34.049 69.9935 34.9441 71.5204 36.4184 72.3804L36.8571 72.6261V75.9784L30.4686 77.8037C28.4502 78.3829 27.0286 80.2608 27.0286 82.3669V84.2449H50.5469ZM25.2735 84.2449V82.3318C25.2735 80.2257 23.8518 78.3478 21.8335 77.7686L15.4449 75.9608V72.6086L15.8837 72.3629C17.3755 71.5029 18.2531 69.9759 18.2531 68.291V65.7812C18.2531 63.1837 16.3575 60.9722 13.9355 60.7792C13.7951 60.7616 13.6547 60.7616 13.5143 60.7616C12.3208 60.7616 11.18 61.2004 10.32 62.0078C9.33714 62.9029 8.77551 64.1665 8.77551 65.5004V68.3086C8.77551 69.9935 9.67061 71.5204 11.1449 72.3804L11.5837 72.6261V75.9784L5.1951 77.8037C3.17673 78.3829 1.7551 80.2608 1.7551 82.3669V84.2449H25.2735ZM81.4367 64.5878V41.0694H52.302V64.5878H57.62L57.7078 64.1665C57.9886 62.8326 58.6731 61.5865 59.6735 60.6739C60.8669 59.5682 62.429 58.9714 64.0788 58.9714C64.2718 58.9714 64.4649 58.9714 64.6404 58.989C67.3959 59.2347 69.6951 61.3057 70.3445 64.1665L70.4322 64.5702H81.4367V64.5878ZM84.2449 39.3143V35.4531H49.4939V39.3143H84.2449ZM81.4367 33.698V29.1347C81.4367 26.9584 79.9624 25.0629 77.8563 24.5363L70.2041 22.6233V18.8849L70.6429 18.6216C72.9596 17.2878 74.4163 14.7955 74.4163 12.1102V9.65306C74.4163 5.42326 71.1343 1.87796 67.0975 1.7551C67.0273 1.7551 66.9571 1.7551 66.8869 1.7551C64.8861 1.7551 63.0257 2.5098 61.6041 3.87878C60.1298 5.31796 59.3224 7.24857 59.3224 9.30204V12.1102C59.3224 14.7955 60.7616 17.2878 63.0959 18.6392L63.5347 18.8849V22.6233L55.9 24.5363C53.7939 25.0629 52.3196 26.9584 52.3196 29.1347V33.698H81.4367ZM23.3429 55.1102C20.5347 55.1102 18.2531 52.8286 18.2531 50.0204C18.2531 47.7212 19.8151 45.7029 22.0792 45.1061L22.4653 45.0008V35.4531H2.80816V7.37143H0V0H46.6857V7.37143H43.8775V35.4531H24.2204V45.0184L24.6065 45.1237C26.8531 45.7029 28.4327 47.7212 28.4327 50.038C28.4327 52.8286 26.151 55.1102 23.3429 55.1102ZM23.3429 46.6857C21.5 46.6857 20.0082 48.1775 20.0082 50.0204C20.0082 51.8633 21.5 53.3551 23.3429 53.3551C25.1857 53.3551 26.6775 51.8633 26.6775 50.0204C26.6775 48.1775 25.1857 46.6857 23.3429 46.6857ZM42.1224 33.698V7.37143H4.56327V33.698H42.1224ZM44.9306 5.61633V1.7551H1.7551V5.61633H44.9306ZM30.8898 29.8367V11.2327H38.2612V29.8367H30.8898ZM36.5061 28.0816V12.9878H32.6449V28.0816H36.5061ZM19.6571 29.8367V14.0408H27.0286V29.8367H19.6571ZM25.2735 28.0816V15.7959H21.4122V28.0816H25.2735ZM8.42449 29.8367V19.6571H15.7959V29.8367H8.42449ZM14.0408 28.0816V21.4122H10.1796V28.0816H14.0408Z" fill="#4E4E4E"/>
</svg>
