<svg width="86" height="87" viewBox="0 0 86 87" fill="none" xmlns="http://www.w3.org/2000/svg">
<path d="M0 85.2951C0 84.9074 0.317213 84.5902 0.704918 84.5902H4.22951V57.8033H0.757787C0.352459 57.8033 0 57.4684 0 57.0455V51.4943C0 51.0889 0.334836 50.7365 0.757787 50.7365H11.4197L12.3537 46.507H4.93443C3.77131 46.507 2.81967 45.5553 2.81967 44.3922V30.2938C2.81967 29.1307 3.77131 28.1791 4.93443 28.1791H27.4918C28.6549 28.1791 29.6066 29.1307 29.6066 30.2938V44.3922C29.6066 45.5553 28.6549 46.507 27.4918 46.507H20.0725L21.0066 50.7365H33.8361V33.8361C33.8361 32.2676 34.8934 30.8754 36.3914 30.4525L43.7049 28.3729V27.1217L43.423 26.9102C41.8369 25.7119 40.8852 23.8262 40.8852 21.8701V19.1738C40.8852 15.702 43.6168 12.7943 47.0709 12.7061C50.6307 12.618 53.5738 15.5082 53.5738 19.0504V21.8701C53.5738 23.8262 52.6221 25.7119 51.0361 26.9102L50.7541 27.1217V28.3729L58.0676 30.4701C59.5656 30.893 60.623 32.3029 60.623 33.8537V38.4533L66.2623 36.8496V35.5984L65.9803 35.3869C64.3943 34.1885 63.4426 32.3029 63.4426 30.3467V27.6504C63.4426 24.1787 66.1742 21.2709 69.6283 21.1828C73.1881 21.0947 76.1311 23.9848 76.1311 27.527V30.3467C76.1311 32.3029 75.1795 34.1885 73.5934 35.3869L73.3115 35.5984V36.8496L80.625 38.9467C82.1229 39.3697 83.1803 40.7795 83.1803 42.3303V58.2439C83.1803 59.5656 82.1053 60.6582 80.766 60.6582H77.541V84.6254H85.2951C85.6828 84.6254 86 84.9426 86 85.3303C86 85.718 85.6828 86.0352 85.2951 86.0352H0.704918C0.317213 86 0 85.6828 0 85.2951ZM70.4918 84.5902H76.1311V47.9344H77.541V59.2131H79.9553C80.9598 59.2131 81.7705 58.4025 81.7705 57.3979V42.3127C81.7705 41.3787 81.1361 40.5328 80.2373 40.2861L71.9016 37.8893V34.7525L72.2541 34.541C73.8049 33.6422 74.7213 32.0561 74.7213 30.2938V27.5799C74.7213 24.9012 72.6242 22.6279 69.9279 22.5398C67.1434 22.4516 64.8525 24.7074 64.8525 27.4742V30.2938C64.8525 32.0561 65.7689 33.6422 67.3197 34.541L67.6721 34.7525V37.8893L59.3365 40.2684C58.4377 40.5328 57.8033 41.3611 57.8033 42.2951V57.3803C57.8033 58.3848 58.6139 59.1955 59.6184 59.1955H62.0328V47.9168H63.4426V84.5725H69.082V59.918C69.082 59.5303 69.3992 59.2131 69.7869 59.2131C70.1746 59.2131 70.4918 59.5303 70.4918 59.918V84.5902ZM5.63934 84.5902H62.0328V80.3606H20.4426C20.0549 80.3606 19.7377 80.0434 19.7377 79.6557C19.7377 79.268 20.0549 78.9508 20.4426 78.9508H62.0328V74.7213H5.63934V78.9508H14.8033C15.191 78.9508 15.5082 79.268 15.5082 79.6557C15.5082 80.0434 15.191 80.3606 14.8033 80.3606H5.63934V84.5902ZM5.63934 73.3115H62.0328V60.6229H59.0369C57.5742 60.6229 56.3934 59.4422 56.3934 57.9795V57.8033H5.63934V73.3115ZM2.16762 56.3934H56.3934V52.1639H2.16762C1.7623 52.1639 1.40984 52.4988 1.40984 52.9217V55.6533C1.40984 56.0586 1.74467 56.3934 2.16762 56.3934ZM36.7791 31.8094C35.8803 32.0738 35.2459 32.902 35.2459 33.8361V50.7541H56.3934V42.3127C56.3934 40.8324 57.3451 39.5107 58.7373 38.9996L59.2131 38.841V33.8537C59.2131 32.9197 58.5787 32.0738 57.6799 31.827L49.3443 29.4303V26.2934L49.6967 26.082C51.2475 25.1832 52.1639 23.5971 52.1639 21.8348V19.0152C52.1639 16.3012 49.9434 14.0807 47.2295 14.0807C44.5156 14.0807 42.2951 16.3012 42.2951 19.0152V21.8348C42.2951 23.5971 43.2115 25.1832 44.7623 26.082L45.1148 26.2934V29.4303L36.7791 31.8094ZM16.2131 39.5107C15.7197 39.5107 15.2967 39.8279 15.191 40.3037L12.8648 50.7541H19.5615L17.2352 40.3037C17.1295 39.8279 16.7066 39.5107 16.2131 39.5107ZM16.2131 38.0656C17.3762 38.0656 18.3631 38.8586 18.6098 39.9865L19.7553 45.1147H26.875C27.5975 45.1147 28.1967 44.5156 28.1967 43.793V30.9283C28.1967 30.2057 27.5975 29.6066 26.875 29.6066H5.55123C4.82869 29.6066 4.22951 30.2057 4.22951 30.9283V43.793C4.22951 44.5156 4.82869 45.1147 5.55123 45.1147H12.6709L13.8164 39.9865C14.0631 38.8586 15.05 38.0656 16.2131 38.0656Z" fill="#4E4E4E"/>
<path d="M22.5575 6.34426C22.5575 5.95656 22.8747 5.63934 23.2624 5.63934C23.6501 5.63934 23.9673 5.95656 23.9673 6.34426C23.9673 6.73197 23.6501 7.04918 23.2624 7.04918C22.8747 7.04918 22.5575 6.73197 22.5575 6.34426Z" fill="#4E4E4E"/>
<path d="M28.1968 6.34426C28.1968 5.95656 28.514 5.63934 28.9017 5.63934C29.2894 5.63934 29.6066 5.95656 29.6066 6.34426C29.6066 6.73197 29.2894 7.04918 28.9017 7.04918C28.514 7.04918 28.1968 6.73197 28.1968 6.34426Z" fill="#4E4E4E"/>
<path d="M16.9179 6.34426C16.9179 5.95656 17.2351 5.63934 17.6228 5.63934C18.0106 5.63934 18.3278 5.95656 18.3278 6.34426C18.3278 6.73197 18.0106 7.04918 17.6228 7.04918C17.2351 7.04918 16.9179 6.73197 16.9179 6.34426Z" fill="#4E4E4E"/>
<path d="M20.2487 12.6885H11.2786V0H35.2458V12.6885H28.1967V17.4643L20.2487 12.6885ZM26.7868 14.9619V11.2787H33.836V1.40984H12.6885V11.2787H20.6364L26.7868 14.9619Z" fill="#4E4E4E"/>
<path d="M62.0329 12.6885H54.9837V0H78.9509V12.6885H69.9808L62.0329 17.4643V12.6885ZM63.4427 14.9619L69.5931 11.2787H77.5411V1.40984H56.3935V11.2787H63.4427V14.9619Z" fill="#4E4E4E"/>
<path d="M60.623 6.34426C60.623 5.95656 60.9402 5.63934 61.3279 5.63934H72.6066C72.9943 5.63934 73.3115 5.95656 73.3115 6.34426C73.3115 6.73197 72.9943 7.04918 72.6066 7.04918H61.3279C60.9402 7.04918 60.623 6.73197 60.623 6.34426Z" fill="#4E4E4E"/>
</svg>
