<svg width="86" height="86" viewBox="0 0 86 86" fill="none" xmlns="http://www.w3.org/2000/svg">
<path d="M1.02381 86C0.460714 86 0 85.5393 0 84.9762V70.131C0 68.8171 0.648413 67.6056 1.74048 66.8718L2.04762 66.6671V21.9266C2.04762 17.9679 5.25556 14.7599 9.21429 14.7599C11.1937 14.7599 13.1048 15.596 14.4528 17.0464L34.4341 37.0278C34.6218 37.2155 34.7413 37.4714 34.7413 37.7444L34.7583 43.6143L38.444 47.3C38.6317 47.4877 38.7512 47.7437 38.7512 48.0167C38.7512 48.2897 38.6488 48.5456 38.444 48.7333C38.2564 48.921 38.0004 49.0405 37.7274 49.0405C37.4544 49.0405 37.1984 48.9381 37.0107 48.7333L33.325 45.0476L27.4552 45.0306C27.1821 45.0306 26.9262 44.9282 26.7385 44.7234L16.381 34.4171V54.2619H84.9762C85.5393 54.2619 86 54.7226 86 55.2857V84.9762C86 85.5393 85.5393 86 84.9762 86H1.02381ZM18.2921 69.1071C18.3774 69.4314 18.4286 69.7726 18.4286 70.131V83.9524H83.9524V75.1135H69.4484C68.8853 75.1135 68.4246 74.6528 68.4246 74.0897C68.4246 73.5266 68.8853 73.0659 69.4484 73.0659H83.9524V68.254H18.0702L18.2921 69.1071ZM3.9246 68.254C2.88373 68.254 2.04762 69.0901 2.04762 70.131V83.9524H16.381V70.131C16.381 69.0901 15.5448 68.254 14.504 68.254H3.9246ZM16.381 66.2064H83.9524V56.3095H16.381V66.2064ZM14.3333 66.2064V27.0286L13.2583 27.7623C12.0639 28.5984 10.6647 29.025 9.19722 29.025C7.74683 29.025 6.34762 28.5814 5.15317 27.7623L4.07817 27.0286V66.2064H14.3333ZM16.381 31.5163L27.8817 43.0171L32.7278 43.0341L32.7107 38.1881L16.381 21.8754V31.5163ZM9.21429 16.8075C6.48413 16.8075 4.23175 18.9405 4.09524 21.6706V21.773C4.09524 21.8071 4.09524 21.8413 4.09524 21.8925C4.09524 24.7079 6.38175 26.9944 9.19722 26.9944C12.0127 26.9944 14.2992 24.7079 14.2992 21.8925C14.2992 21.8583 14.2992 21.8071 14.3163 21.756L14.3333 21.6877V21.6194C14.1627 18.9234 11.9274 16.8075 9.21429 16.8075Z" fill="#4E4E4E"/>
<path d="M43.8532 62.2817C43.5802 62.2817 43.3242 62.1794 43.1365 61.9746C42.9488 61.7869 42.8294 61.5139 42.8294 61.2579C42.8294 61.002 42.9317 60.729 43.1365 60.5413C43.3242 60.3536 43.5972 60.2341 43.8532 60.2341C44.1091 60.2341 44.3821 60.3365 44.5698 60.5413C44.7575 60.746 44.877 61.002 44.877 61.2579C44.877 61.5139 44.7746 61.7869 44.5698 61.9746C44.3651 62.1623 44.1262 62.2817 43.8532 62.2817Z" fill="#4E4E4E"/>
<path d="M32.9325 62.2817C32.6595 62.2817 32.4036 62.1794 32.2159 61.9746C32.0282 61.7869 31.9087 61.5139 31.9087 61.2579C31.9087 61.002 32.0111 60.729 32.2159 60.5413C32.4036 60.3536 32.6766 60.2341 32.9325 60.2341C33.1885 60.2341 33.4615 60.3365 33.6492 60.5413C33.8369 60.729 33.9564 61.002 33.9564 61.2579C33.9564 61.5139 33.854 61.7869 33.6492 61.9746C33.4615 62.1794 33.2056 62.2817 32.9325 62.2817Z" fill="#4E4E4E"/>
<path d="M22.0119 62.2817C21.7389 62.2817 21.4829 62.1794 21.2952 61.9746C21.1075 61.7869 20.9881 61.5139 20.9881 61.2579C20.9881 61.002 21.0905 60.729 21.2952 60.5413C21.4829 60.3536 21.756 60.2341 22.0119 60.2341C22.2679 60.2341 22.5409 60.3365 22.7286 60.5413C22.9163 60.729 23.0357 61.002 23.0357 61.2579C23.0357 61.5139 22.9333 61.7869 22.7286 61.9746C22.5409 62.1794 22.2849 62.2817 22.0119 62.2817Z" fill="#4E4E4E"/>
<path d="M76.6151 62.2817C76.3421 62.2817 76.0861 62.1794 75.8984 61.9746C75.7107 61.7698 75.5913 61.5139 75.5913 61.2579C75.5913 61.002 75.6936 60.729 75.8984 60.5413C76.1032 60.3536 76.3591 60.2341 76.6151 60.2341C76.871 60.2341 77.144 60.3365 77.3317 60.5413C77.5194 60.746 77.6389 61.002 77.6389 61.2579C77.6389 61.5139 77.5365 61.7869 77.3317 61.9746C77.127 62.1623 76.8881 62.2817 76.6151 62.2817Z" fill="#4E4E4E"/>
<path d="M54.7738 62.2817C54.5008 62.2817 54.2448 62.1794 54.0571 61.9746C53.8694 61.7698 53.75 61.5139 53.75 61.2579C53.75 61.002 53.8524 60.729 54.0571 60.5413C54.2619 60.3536 54.5179 60.2341 54.7738 60.2341C55.0298 60.2341 55.3028 60.3365 55.4905 60.5413C55.6782 60.746 55.7976 61.002 55.7976 61.2579C55.7976 61.5139 55.6952 61.7869 55.4905 61.9746C55.2857 62.1623 55.0468 62.2817 54.7738 62.2817Z" fill="#4E4E4E"/>
<path d="M65.6945 62.2817C65.4214 62.2817 65.1655 62.1794 64.9778 61.9746C64.7901 61.7698 64.6706 61.5139 64.6706 61.2579C64.6706 61.002 64.773 60.729 64.9778 60.5413C65.1825 60.3536 65.4385 60.2341 65.6945 60.2341C65.9504 60.2341 66.2234 60.3365 66.4111 60.5413C66.5988 60.746 66.7183 61.002 66.7183 61.2579C66.7183 61.5139 66.6159 61.7869 66.4111 61.9746C66.2064 62.1623 65.9675 62.2817 65.6945 62.2817Z" fill="#4E4E4E"/>
<path d="M9.21429 22.9163C8.94127 22.9163 8.68532 22.8139 8.49762 22.6091C8.30992 22.4214 8.19048 22.1484 8.19048 21.8925C8.19048 21.6195 8.29286 21.3635 8.49762 21.1758C8.68532 20.9881 8.95833 20.8687 9.21429 20.8687C9.4873 20.8687 9.74325 20.971 9.93095 21.1758C10.1187 21.3635 10.2381 21.6365 10.2381 21.8925C10.2381 22.1655 10.1357 22.4214 9.93095 22.6091C9.74325 22.8139 9.4873 22.9163 9.21429 22.9163Z" fill="#4E4E4E"/>
<path d="M55.7123 50.3373C55.4393 50.3373 55.1833 50.2349 54.9956 50.0302C54.6032 49.6377 54.6032 48.9893 54.9956 48.5798L58.0329 45.5425L57.8282 45.0988C57.0262 43.4095 57.3675 41.379 58.6984 40.048L67.9298 30.8167V18.7698C67.9298 18.6845 67.9468 18.6163 67.9639 18.531L68.0492 18.1556L67.7762 17.8825C66.5306 16.654 65.8651 15.0329 65.8651 13.3095C65.8651 12.1151 66.2064 10.9377 66.8206 9.91389L67.469 8.87302H44.0238V17.3877L48.5968 21.9607C48.7845 22.1484 48.904 22.4044 48.904 22.6774V26.619C48.904 26.8921 48.8016 27.148 48.5968 27.3357L46.8052 29.1274C46.6175 29.3151 46.3615 29.4345 46.0885 29.4345C45.8155 29.4345 45.5595 29.3321 45.3718 29.1274C44.9794 28.7349 44.9794 28.0865 45.3718 27.677L46.8563 26.1925V23.104L43 19.2476L39.1607 23.0869V26.1754L40.6964 27.7111C40.8841 27.8988 41.0036 28.1548 41.0036 28.4278C41.0036 28.7008 40.9012 28.9567 40.6964 29.1444C40.4917 29.3321 40.2528 29.4516 39.9798 29.4516C39.7067 29.4516 39.4508 29.3492 39.2631 29.1444L37.4202 27.3016C37.2325 27.1139 37.1131 26.8579 37.1131 26.5849V22.6433C37.1131 22.3702 37.2155 22.1143 37.4202 21.9266L41.9933 17.3536V8.87302H30.3901C29.827 8.87302 29.3663 8.4123 29.3663 7.84921C29.3663 7.28611 29.827 6.8254 30.3901 6.8254H41.9933V5.63095C41.9933 5.06786 42.454 4.60714 43.0171 4.60714C43.5802 4.60714 44.0409 5.06786 44.0409 5.63095V6.8254H83.9694V2.04762H2.04762V6.8254H14.504C15.0671 6.8254 15.5278 7.28611 15.5278 7.84921C15.5278 8.4123 15.0671 8.87302 14.504 8.87302H1.02381C0.460714 8.87302 0 8.4123 0 7.84921V1.02381C0 0.460714 0.460714 0 1.02381 0H84.9762C85.5393 0 86 0.460714 86 1.02381V7.84921C86 8.4123 85.5393 8.87302 84.9762 8.87302H77.2294L77.8778 9.91389C78.4921 10.9377 78.8333 12.1151 78.8333 13.3095C78.8333 15.0329 78.1679 16.654 76.9393 17.8825L76.6663 18.1556L76.7516 18.531C76.7687 18.6163 76.7857 18.6845 76.7857 18.7698V32.8472C76.7857 34.3659 76.0179 35.7651 74.721 36.5841L74.6528 36.6183L64.9437 46.3274C64.1075 47.1635 62.9984 47.6242 61.804 47.6242C61.1385 47.6242 60.4901 47.4706 59.8929 47.1976L59.4492 46.9929L56.4119 50.0302C56.2413 50.2349 55.9853 50.3373 55.7123 50.3373ZM60.3536 45.0817C60.7631 45.406 61.275 45.5766 61.821 45.5766C62.4524 45.5766 63.0496 45.3206 63.5103 44.877L71.1718 37.2155L70.3357 36.7889C69.4314 36.3282 68.7147 35.5603 68.3052 34.6389L67.8956 33.7345L60.1317 41.4984C59.2786 42.3516 59.2103 43.7167 59.927 44.6552V45.0817H60.3536ZM69.9603 32.8472C69.9603 34.1611 71.0353 35.2361 72.3492 35.2361C72.7075 35.2361 73.0488 35.1508 73.373 34.9972L73.4754 34.929C73.5266 34.8948 73.5778 34.8607 73.629 34.8266L73.7314 34.7583C74.3456 34.3147 74.721 33.5809 74.721 32.8302V19.3841L73.8679 19.5889C73.356 19.7083 72.844 19.7766 72.3321 19.7766C71.8202 19.7766 71.2913 19.7083 70.7964 19.5889L69.9433 19.3841V32.8472H69.9603ZM72.3492 8.87302C69.9091 8.87302 67.9127 10.8694 67.9127 13.3095C67.9127 15.7496 69.9091 17.746 72.3492 17.746C74.7893 17.746 76.7857 15.7496 76.7857 13.3095C76.7857 10.8694 74.7893 8.87302 72.3492 8.87302Z" fill="#4E4E4E"/>
<path d="M22.8651 8.87302C22.5921 8.87302 22.3361 8.77064 22.1484 8.56587C21.9607 8.37818 21.8413 8.10516 21.8413 7.84921C21.8413 7.59325 21.9436 7.32024 22.1484 7.13254C22.3361 6.94484 22.6091 6.8254 22.8651 6.8254C23.121 6.8254 23.394 6.92778 23.5817 7.13254C23.7694 7.32024 23.8889 7.59325 23.8889 7.84921C23.8889 8.10516 23.7865 8.37818 23.5817 8.56587C23.394 8.77064 23.1381 8.87302 22.8651 8.87302Z" fill="#4E4E4E"/>
<path d="M72.3492 14.3333C72.0762 14.3333 71.8202 14.231 71.6325 14.0262C71.4448 13.8385 71.3254 13.5655 71.3254 13.3095C71.3254 13.0536 71.4278 12.7806 71.6325 12.5929C71.8202 12.4052 72.0933 12.2857 72.3492 12.2857C72.6052 12.2857 72.8782 12.3881 73.0659 12.5929C73.2536 12.7806 73.373 13.0536 73.373 13.3095C73.373 13.5655 73.2707 13.8385 73.0659 14.0262C72.8782 14.231 72.6222 14.3333 72.3492 14.3333Z" fill="#4E4E4E"/>
<path d="M9.21429 79.9425C7.09841 79.9425 5.375 78.219 5.375 76.1032C5.375 73.9873 7.09841 72.2639 9.21429 72.2639C11.3302 72.2639 13.0536 73.9873 13.0536 76.1032C13.0536 78.219 11.3302 79.9425 9.21429 79.9425ZM9.21429 74.3115C8.2246 74.3115 7.42262 75.1135 7.42262 76.1032C7.42262 77.0928 8.2246 77.8948 9.21429 77.8948C10.204 77.8948 11.006 77.0928 11.006 76.1032C11.006 75.1135 10.204 74.3115 9.21429 74.3115Z" fill="#4E4E4E"/>
<path d="M62.6404 75.1306C62.3674 75.1306 62.1115 75.0282 61.9238 74.8234C61.7361 74.6357 61.6166 74.3627 61.6166 74.1067C61.6166 73.8508 61.719 73.5778 61.9238 73.3901C62.1115 73.2024 62.3845 73.0829 62.6404 73.0829C62.9134 73.0829 63.1694 73.1853 63.3571 73.3901C63.5448 73.5778 63.6642 73.8508 63.6642 74.1067C63.6642 74.3798 63.5618 74.6357 63.3571 74.8234C63.1523 75.0111 62.9134 75.1306 62.6404 75.1306Z" fill="#4E4E4E"/>
</svg>
