<svg width="90" height="86" viewBox="0 0 90 86" fill="none" xmlns="http://www.w3.org/2000/svg">
<path d="M78.4177 86C77.8861 86 77.4684 85.6008 77.4684 85.0928V83.8591L73.0253 75.3861C73.0253 75.3679 73.0063 75.3498 73.0063 75.3316C73.0063 75.2954 72.9873 75.2772 72.9684 75.2409C72.9494 75.1684 72.9304 75.0776 72.9114 74.9869C72.9114 74.9506 72.9114 74.9143 72.8924 74.8962V5.2616C72.8924 2.35865 75.3608 0 78.3987 0C81.4367 0 83.9051 2.35865 83.9051 5.2616V5.84219L84.3608 5.93291C87.6266 6.58608 90 9.34388 90 12.519V25.5823C90 26.0903 89.5823 26.4895 89.0506 26.4895C88.519 26.4895 88.1013 26.0903 88.1013 25.5823V12.519C88.1013 10.4506 86.7152 8.6 84.6835 7.91055L83.924 7.65654V74.8781C83.924 74.8962 83.924 74.9325 83.9051 74.9688C83.9051 75.0595 83.8861 75.1502 83.8481 75.2409C83.8481 75.2591 83.8291 75.2954 83.8291 75.3135C83.8291 75.3135 83.8291 75.2954 83.8481 75.2772C83.8291 75.3135 83.8291 75.3316 83.8101 75.3679L79.3671 83.8591V85.0928C79.3671 85.6008 78.9494 86 78.4177 86ZM78.4177 81.6093L81.4367 75.8397H75.3987L78.4177 81.6093ZM74.8101 74.0253H82.0253V32.2954H74.8101V74.0253ZM74.8101 30.481H82.0253V7.62025H74.8101V30.481ZM78.4177 1.81435C76.424 1.81435 74.8101 3.35654 74.8101 5.2616V5.80591H82.0253V5.2616C82.0253 3.35654 80.4114 1.81435 78.4177 1.81435ZM0.949367 86C0.417722 86 0 85.6008 0 85.0928V6.71308C0 6.20506 0.417722 5.80591 0.949367 5.80591H15.1899V0.907173C15.1899 0.399156 15.6076 0 16.1392 0H52.5949C53.1266 0 53.5443 0.399156 53.5443 0.907173V5.80591H67.7848C68.3165 5.80591 68.7342 6.20506 68.7342 6.71308V85.0928C68.7342 85.6008 68.3165 86 67.7848 86H0.949367ZM1.89873 84.1857H66.8354V7.62025H53.5443V15.4219C53.5443 15.93 53.1266 16.3291 52.5949 16.3291H37.4051C36.8734 16.3291 36.4557 15.93 36.4557 15.4219C36.4557 14.3152 35.5253 13.4262 34.3671 13.4262C33.2089 13.4262 32.2785 14.3152 32.2785 15.4219C32.2785 15.93 31.8608 16.3291 31.3291 16.3291H16.1392C15.6076 16.3291 15.1899 15.93 15.1899 15.4219V7.62025H1.89873V84.1857ZM34.3671 11.6118C36.057 11.6118 37.557 12.6278 38.1266 14.1519L38.2595 14.5148H51.6456V7.62025H17.0886V14.5148H30.4747L30.6076 14.1519C31.0063 13.0633 31.8987 12.2105 33.038 11.8295C33.4747 11.6844 33.9114 11.6118 34.3671 11.6118ZM17.0886 5.80591H51.6456V1.81435H17.0886V5.80591ZM54.1139 80.1941C51.076 80.1941 48.6076 77.8354 48.6076 74.9325C48.6076 72.0295 51.076 69.6709 54.1139 69.6709C57.1519 69.6709 59.6203 72.0295 59.6203 74.9325C59.6203 77.8354 57.1519 80.1941 54.1139 80.1941ZM54.1139 71.4852C52.1203 71.4852 50.5063 73.0274 50.5063 74.9325C50.5063 76.8375 52.1203 78.3797 54.1139 78.3797C56.1076 78.3797 57.7215 76.8375 57.7215 74.9325C57.7215 73.0274 56.1076 71.4852 54.1139 71.4852ZM25.2342 80.1941C20.3354 80.1941 15.7785 78.1076 12.7025 74.497C7.10127 67.8928 8.14557 58.1679 15.057 52.7975C17.9241 50.5658 21.5316 49.3502 25.2152 49.3502C30.1139 49.3502 34.6709 51.4367 37.7468 55.0473L38.1456 55.519L39.7595 53.9768C39.9304 53.8135 40.1772 53.7046 40.4241 53.7046H44.4114V55.519H40.8228L39.2089 57.0612L39.4177 57.4241C42.057 62.0325 42.038 67.53 39.3987 72.1203L39.1899 72.4831L40.8228 74.0435H44.4304V75.8578H40.443C40.1772 75.8578 39.9494 75.7671 39.7595 75.5857L38.1266 74.0253L37.7279 74.497C37.1392 75.1865 36.4937 75.8397 35.8101 76.4203C35.6772 76.5291 35.5443 76.638 35.4114 76.7468C32.5443 78.9603 28.9367 80.1941 25.2342 80.1941ZM25.2342 51.1646C22.3861 51.1646 19.6329 51.981 17.2595 53.5051C10.7658 57.7143 9.05696 66.1873 13.462 72.4106C16.1203 76.1481 20.5253 78.3979 25.2722 78.3979C28.1203 78.3979 30.8734 77.5814 33.2468 76.0574L33.8165 75.6945L23.0886 65.4435C22.9177 65.2802 22.8038 65.0443 22.8038 64.8084C22.8038 64.3004 23.2215 63.9013 23.7532 63.9013H39.4937L39.4177 63.3025C39.2468 61.8511 38.8291 60.454 38.1835 59.1295L37.8418 58.4219L35.4494 60.708L34.1013 59.4198L36.7975 56.8435L36.4937 56.4625C33.7785 53.0878 29.6582 51.1646 25.2342 51.1646ZM35.2405 74.4789L35.6392 74.0616C35.9051 73.7895 36.1899 73.4629 36.4937 73.1L36.7975 72.719L34.1013 70.1426L35.4494 68.8544L37.8418 71.1405L38.1835 70.4329C38.8291 69.1084 39.2278 67.7114 39.3987 66.2599L39.4747 65.6612H26.0316L35.2405 74.4789ZM54.1139 59.8734C51.076 59.8734 48.6076 57.5148 48.6076 54.6118C48.6076 51.7089 51.076 49.3502 54.1139 49.3502C57.1519 49.3502 59.6203 51.7089 59.6203 54.6118C59.6203 57.5148 57.1519 59.8734 54.1139 59.8734ZM54.1139 51.1646C52.1203 51.1646 50.5063 52.7068 50.5063 54.6118C50.5063 56.5169 52.1203 58.0591 54.1139 58.0591C56.1076 58.0591 57.7215 56.5169 57.7215 54.6118C57.7215 52.7068 56.1076 51.1646 54.1139 51.1646ZM14.6203 45.3587C11.5823 45.3587 9.11392 43 9.11392 40.097C9.11392 37.1941 11.5823 34.8354 14.6203 34.8354C17.6582 34.8354 20.1266 37.1941 20.1266 40.097C20.1266 43 17.6582 45.3587 14.6203 45.3587ZM14.6203 36.6498C12.6266 36.6498 11.0127 38.192 11.0127 40.097C11.0127 42.0021 12.6266 43.5443 14.6203 43.5443C16.6139 43.5443 18.2278 42.0021 18.2278 40.097C18.2278 38.192 16.6139 36.6498 14.6203 36.6498ZM41.962 43.9072C41.4304 43.9072 41.0127 43.508 41.0127 43C41.0127 42.492 41.4304 42.0928 41.962 42.0928H58.6709C59.2025 42.0928 59.6203 42.492 59.6203 43C59.6203 43.508 59.2025 43.9072 58.6709 43.9072H41.962ZM25.2532 43.9072C24.7215 43.9072 24.3038 43.508 24.3038 43C24.3038 42.492 24.7215 42.0928 25.2532 42.0928H35.8861C36.4177 42.0928 36.8354 42.492 36.8354 43C36.8354 43.508 36.4177 43.9072 35.8861 43.9072H25.2532ZM52.5949 38.1013C52.0633 38.1013 51.6456 37.7021 51.6456 37.1941C51.6456 36.6861 52.0633 36.2869 52.5949 36.2869H58.6709C59.2025 36.2869 59.6203 36.6861 59.6203 37.1941C59.6203 37.7021 59.2025 38.1013 58.6709 38.1013H52.5949ZM25.2532 38.1013C24.7215 38.1013 24.3038 37.7021 24.3038 37.1941C24.3038 36.6861 24.7215 36.2869 25.2532 36.2869H46.519C47.0506 36.2869 47.4684 36.6861 47.4684 37.1941C47.4684 37.7021 47.0506 38.1013 46.519 38.1013H25.2532ZM14.6203 30.8439C11.5823 30.8439 9.11392 28.4852 9.11392 25.5823C9.11392 22.6793 11.5823 20.3207 14.6203 20.3207C17.6582 20.3207 20.1266 22.6793 20.1266 25.5823C20.1266 28.4852 17.6582 30.8439 14.6203 30.8439ZM14.6203 22.135C12.6266 22.135 11.0127 23.6772 11.0127 25.5823C11.0127 27.4873 12.6266 29.0295 14.6203 29.0295C16.6139 29.0295 18.2278 27.4873 18.2278 25.5823C18.2278 23.6772 16.6139 22.135 14.6203 22.135ZM46.519 29.3924C45.9873 29.3924 45.5696 28.9932 45.5696 28.4852C45.5696 27.9772 45.9873 27.5781 46.519 27.5781H58.6709C59.2025 27.5781 59.6203 27.9772 59.6203 28.4852C59.6203 28.9932 59.2025 29.3924 58.6709 29.3924H46.519ZM25.2532 29.3924C24.7215 29.3924 24.3038 28.9932 24.3038 28.4852C24.3038 27.9772 24.7215 27.5781 25.2532 27.5781H40.443C40.9747 27.5781 41.3924 27.9772 41.3924 28.4852C41.3924 28.9932 40.9747 29.3924 40.443 29.3924H25.2532ZM37.4051 23.5865C36.8734 23.5865 36.4557 23.1873 36.4557 22.6793C36.4557 22.1713 36.8734 21.7722 37.4051 21.7722H58.6709C59.2025 21.7722 59.6203 22.1713 59.6203 22.6793C59.6203 23.1873 59.2025 23.5865 58.6709 23.5865H37.4051ZM25.2532 23.5865C24.7215 23.5865 24.3038 23.1873 24.3038 22.6793C24.3038 22.1713 24.7215 21.7722 25.2532 21.7722H31.3291C31.8608 21.7722 32.2785 22.1713 32.2785 22.6793C32.2785 23.1873 31.8608 23.5865 31.3291 23.5865H25.2532Z" fill="#4E4E4E"/>
</svg>
