<svg width="86" height="86" viewBox="0 0 86 86" fill="none" xmlns="http://www.w3.org/2000/svg">
<path d="M47.7388 31.7673C47.7388 31.2759 48.1249 30.8898 48.6163 30.8898H62.6571C63.1486 30.8898 63.5347 31.2759 63.5347 31.7673C63.5347 32.2588 63.1486 32.6449 62.6571 32.6449H48.6163C48.1249 32.6449 47.7388 32.2588 47.7388 31.7673ZM48.6163 22.8163H62.6571C63.1486 22.8163 63.5347 22.4302 63.5347 21.9388C63.5347 21.4473 63.1486 21.0612 62.6571 21.0612H48.6163C48.1249 21.0612 47.7388 21.4473 47.7388 21.9388C47.7388 22.4302 48.1249 22.8163 48.6163 22.8163ZM54.7592 37.3837C54.7592 37.8751 55.1453 38.2612 55.6367 38.2612C56.1282 38.2612 56.5143 37.8751 56.5143 37.3837C56.5143 36.8922 56.1282 36.5061 55.6367 36.5061C55.1453 36.5061 54.7592 36.8922 54.7592 37.3837ZM60.3755 37.3837C60.3755 37.8751 60.7616 38.2612 61.2531 38.2612C61.7445 38.2612 62.1306 37.8751 62.1306 37.3837C62.1306 36.8922 61.7445 36.5061 61.2531 36.5061C60.7616 36.5061 60.3755 36.8922 60.3755 37.3837ZM48.6163 11.5837H62.6571C63.1486 11.5837 63.5347 11.1976 63.5347 10.7061C63.5347 10.2147 63.1486 9.82857 62.6571 9.82857H48.6163C48.1249 9.82857 47.7388 10.2147 47.7388 10.7061C47.7388 11.1976 48.1249 11.5837 48.6163 11.5837ZM48.6163 17.2H62.6571C63.1486 17.2 63.5347 16.8139 63.5347 16.3224C63.5347 15.831 63.1486 15.4449 62.6571 15.4449H48.6163C48.1249 15.4449 47.7388 15.831 47.7388 16.3224C47.7388 16.8139 48.1249 17.2 48.6163 17.2ZM49.1429 37.3837C49.1429 37.8751 49.529 38.2612 50.0204 38.2612C50.5118 38.2612 50.898 37.8751 50.898 37.3837C50.898 36.8922 50.5118 36.5061 50.0204 36.5061C49.529 36.5061 49.1429 36.8922 49.1429 37.3837ZM23.8694 16.3224C23.8694 16.8139 24.2555 17.2 24.7469 17.2C25.2384 17.2 25.6245 16.8139 25.6245 16.3224C25.6245 15.831 25.2384 15.4449 24.7469 15.4449C24.2555 15.4449 23.8694 15.831 23.8694 16.3224ZM38.2612 27.5551C38.2612 27.0637 37.8751 26.6775 37.3837 26.6775H23.3429C22.8514 26.6775 22.4653 27.0637 22.4653 27.5551C22.4653 28.0465 22.8514 28.4327 23.3429 28.4327H37.3837C37.8751 28.4327 38.2612 28.0465 38.2612 27.5551ZM23.3429 22.8163H37.3837C37.8751 22.8163 38.2612 22.4302 38.2612 21.9388C38.2612 21.4473 37.8751 21.0612 37.3837 21.0612H23.3429C22.8514 21.0612 22.4653 21.4473 22.4653 21.9388C22.4653 22.4302 22.8514 22.8163 23.3429 22.8163ZM86 85.1224C86 85.6139 85.6139 86 85.1224 86H0.877551C0.386122 86 0 85.6139 0 85.1224C0 84.631 0.386122 84.2449 0.877551 84.2449H32.2939V73.9424C32.2939 73.1351 32.0833 72.3453 31.6971 71.6433L26.0808 61.5514C25.5543 60.5861 25.2559 59.498 25.2559 58.3922V55.1102H7.02041V7.02041H16.849V0H31.7673C36.3131 0 40.4376 2.5098 42.5261 6.56408L43 7.45918L43.4739 6.56408C45.5624 2.5098 49.6869 0 54.2327 0H69.151V7.02041H78.9796V55.1102H60.7265V58.6555C60.7265 59.5682 60.5335 60.4633 60.1649 61.2882L55.5139 71.7486C55.2506 72.3629 55.1102 73.0122 55.1102 73.6792V84.2449H85.1224C85.6139 84.2449 86 84.631 86 85.1224ZM51.4245 78.6286H53.3551V74.7673H34.049V78.6286H45.8082C46.2996 78.6286 46.6857 79.0147 46.6857 79.5061C46.6857 79.9976 46.2996 80.3837 45.8082 80.3837H34.049V84.2449H53.3551V80.3837H51.4245C50.9331 80.3837 50.5469 79.9976 50.5469 79.5061C50.5469 79.0147 50.9331 78.6286 51.4245 78.6286ZM27.5375 32.2939C31.9078 32.2939 35.4531 35.8392 35.4531 40.1918V47.7388H42.1224V27.5551C42.1224 27.0637 42.5086 26.6775 43 26.6775C43.4914 26.6775 43.8775 27.0637 43.8775 27.5551V47.7388H67.3959V1.7551H54.2327C48.5286 1.7551 43.8775 6.40612 43.8775 12.1102V21.9388C43.8775 22.4302 43.4914 22.8163 43 22.8163C42.5086 22.8163 42.1224 22.4302 42.1224 21.9388V12.1102C42.1224 6.40612 37.4714 1.7551 31.7673 1.7551H18.6041V47.7388H25.2735V34.5755C25.2735 33.3118 26.2914 32.2939 27.5375 32.2939ZM77.2245 8.77551H69.151V49.4939H36.6992L37.5416 50.389C39.7004 52.6706 41.2273 55.4788 41.9645 58.5151L42.0522 58.8661L42.4208 58.9188C42.4559 58.9188 42.5086 58.9363 42.5437 58.9363H42.5612C42.6841 58.9539 42.842 58.989 43 58.989C45.6151 58.989 47.7388 56.8653 47.7388 54.2502V53.3727H77.2245V8.77551ZM27.0286 58.3922C27.0286 59.1996 27.2392 59.9894 27.6253 60.6914L33.2416 70.7833C33.54 71.3273 33.7682 71.9241 33.9086 72.591L33.9963 73.0122H53.4077L53.478 72.5735C53.5833 71.9767 53.7237 71.4678 53.9167 71.029L58.5678 60.5686C58.831 59.9543 58.9714 59.3049 58.9714 58.638V55.1102H49.4412L49.3535 55.5314C48.7392 58.5326 46.0714 60.709 43.0176 60.7265C42.9824 60.7265 42.9473 60.7265 42.9298 60.7265H42.3682L42.4033 61.2882C42.4208 61.5163 42.3506 61.7269 42.1926 61.8849C42.0522 62.0429 41.8416 62.1306 41.6135 62.1306H41.4204C41.0167 62.1306 40.6833 61.8147 40.6482 61.411C40.3673 57.6024 38.7 54.0045 35.9971 51.2841L33.698 48.9849V40.1918C33.698 36.8045 30.9424 34.049 27.5551 34.049H27.0286V58.3922ZM16.849 49.4939V8.77551H8.77551V53.3551H25.2735V49.4939H16.849ZM23.3429 11.5837H37.3837C37.8751 11.5837 38.2612 11.1976 38.2612 10.7061C38.2612 10.2147 37.8751 9.82857 37.3837 9.82857H23.3429C22.8514 9.82857 22.4653 10.2147 22.4653 10.7061C22.4653 11.1976 22.8514 11.5837 23.3429 11.5837ZM29.4857 16.3224C29.4857 16.8139 29.8718 17.2 30.3633 17.2C30.8547 17.2 31.2408 16.8139 31.2408 16.3224C31.2408 15.831 30.8547 15.4449 30.3633 15.4449C29.8718 15.4449 29.4857 15.831 29.4857 16.3224ZM48.6163 43.8775H62.6571C63.1486 43.8775 63.5347 43.4914 63.5347 43C63.5347 42.5086 63.1486 42.1224 62.6571 42.1224H48.6163C48.1249 42.1224 47.7388 42.5086 47.7388 43C47.7388 43.4914 48.1249 43.8775 48.6163 43.8775ZM35.102 16.3224C35.102 16.8139 35.4882 17.2 35.9796 17.2C36.471 17.2 36.8571 16.8139 36.8571 16.3224C36.8571 15.831 36.471 15.4449 35.9796 15.4449C35.4882 15.4449 35.102 15.831 35.102 16.3224Z" fill="#4E4E4E"/>
</svg>
