<svg width="32" height="29" viewBox="0 0 32 29" fill="none" xmlns="http://www.w3.org/2000/svg">
<g clip-path="url(#clip0)">
<path d="M24.9048 17.9663C24.2658 17.3465 23.5039 17.0175 22.6928 17.0175C21.8899 17.0175 21.1116 17.3389 20.448 17.9587L18.3753 19.8869C18.2032 19.8027 18.0312 19.7186 17.8673 19.642C17.6297 19.5349 17.4085 19.4278 17.2201 19.3207C15.2784 18.1729 13.517 16.6732 11.8293 14.7296C11.0101 13.7655 10.4611 12.9468 10.0597 12.1204C10.6004 11.6613 11.092 11.1869 11.5835 10.7278C11.7638 10.5595 11.9522 10.3758 12.1324 10.2075C13.5088 8.92199 13.5088 7.25391 12.1324 5.96842L10.3464 4.30035C10.1416 4.10906 9.93681 3.91776 9.74019 3.71882C9.34694 3.33623 8.9373 2.946 8.51129 2.57871C7.86406 1.98953 7.10215 1.67581 6.30746 1.67581C5.50458 1.67581 4.73446 1.98953 4.07905 2.57871L4.06266 2.59402L1.83426 4.69059C0.990413 5.47106 0.515238 6.42753 0.408733 7.53703C0.253073 9.32753 0.818367 10.9879 1.24439 12.0821C2.30943 14.7602 3.89062 17.2394 6.2583 19.8945C9.12574 23.093 12.583 25.6257 16.5319 27.4085C18.0394 28.0742 20.0548 28.8624 22.2996 29.0001C22.4388 29.0077 22.5781 29.0154 22.7092 29.0154C24.2248 29.0154 25.4947 28.5104 26.4942 27.5004C26.5024 27.485 26.5106 27.4851 26.5188 27.4697C26.8629 27.0872 27.2561 26.7352 27.6658 26.3602C27.9443 26.1077 28.2392 25.8476 28.5178 25.5721C29.165 24.9447 29.5091 24.2101 29.5091 23.4526C29.5091 22.6951 29.165 21.9682 28.5014 21.356L24.9048 17.9663ZM27.2479 24.4091C27.2397 24.4091 27.2397 24.4167 27.2479 24.4091C26.994 24.6692 26.7318 24.8988 26.445 25.1589C26.019 25.5415 25.5848 25.9394 25.1834 26.3832C24.5198 27.0412 23.7415 27.355 22.7174 27.355C22.6191 27.355 22.5126 27.355 22.4142 27.3473C20.4644 27.2325 18.662 26.5209 17.302 25.9164C13.5907 24.2407 10.3383 21.861 7.62648 18.8386C5.39807 16.3288 3.907 14.0027 2.91569 11.5006C2.30943 9.97792 2.08004 8.79191 2.17835 7.6671C2.24389 6.94784 2.53883 6.35866 3.07954 5.846L5.31614 3.75708C5.63566 3.47396 5.97975 3.32093 6.31565 3.32093C6.72528 3.32093 7.06118 3.55048 7.27419 3.74943L7.29058 3.76473C7.69202 4.11671 8.06888 4.47634 8.47032 4.85893C8.67514 5.05787 8.87996 5.24916 9.09297 5.45576L10.879 7.12383C11.5753 7.77423 11.5753 8.37106 10.879 9.02146C10.6905 9.19745 10.5021 9.37344 10.3137 9.54943C9.76476 10.0774 9.24043 10.5671 8.66695 11.0415C8.65056 11.0568 8.64237 11.0568 8.63418 11.0721C8.06888 11.6001 8.17539 12.1128 8.29008 12.4647L8.30647 12.5183C8.77345 13.5742 9.42887 14.5613 10.4202 15.7473L10.4284 15.755C12.239 17.8362 14.1478 19.4584 16.2452 20.698C16.5155 20.8587 16.7859 20.9887 17.048 21.1112C17.2856 21.2183 17.5068 21.3254 17.6953 21.4325C17.7198 21.4478 17.7444 21.4632 17.7772 21.4785C17.9984 21.5856 18.2114 21.6315 18.4244 21.6315C18.9651 21.6315 19.3092 21.3101 19.4239 21.2106L21.6687 19.1141C21.8899 18.9075 22.2422 18.655 22.66 18.655C23.0697 18.655 23.3974 18.8922 23.6022 19.0988L27.2233 22.4808C27.9197 23.1236 27.9197 23.7663 27.2479 24.4091Z" fill="#7F7F7F"/>
<path d="M17.1464 6.9019C18.8668 7.16971 20.4234 7.92723 21.6687 9.09029C22.914 10.2534 23.7169 11.7072 24.0118 13.314C24.0856 13.7196 24.4542 14.0027 24.8803 14.0027C24.9294 14.0027 24.9786 13.995 25.0277 13.9874C25.5111 13.9109 25.8306 13.4824 25.7569 13.0309C25.4046 11.0874 24.4215 9.31984 22.9222 7.91958C21.423 6.51931 19.5304 5.6011 17.4495 5.27208C16.9661 5.19556 16.5155 5.50163 16.4254 5.94543C16.3435 6.38923 16.6548 6.82538 17.1464 6.9019Z" fill="#7F7F7F"/>
<path d="M31.377 12.7937C30.7953 9.59525 29.1813 6.6876 26.7071 4.37678C24.233 2.06597 21.1197 0.558577 17.6952 0.0153056C17.22 -0.0612116 16.7612 0.244857 16.6793 0.688657C16.5974 1.14011 16.9251 1.56095 17.4085 1.64512C20.4643 2.12718 23.2498 3.48153 25.4619 5.5475C27.6739 7.61346 29.1158 10.215 29.6401 13.0691C29.7139 13.4747 30.0825 13.7578 30.5086 13.7578C30.5577 13.7578 30.6069 13.7501 30.656 13.7425C31.1394 13.666 31.4671 13.2375 31.377 12.7937Z" fill="#7F7F7F"/>
</g>
<defs>
<clipPath id="clip0">
<rect width="31.0093" height="29" fill="white" transform="translate(0.384033)"/>
</clipPath>
</defs>
</svg>
