<svg width="32" height="32" viewBox="0 0 32 32" fill="none" xmlns="http://www.w3.org/2000/svg">
<path d="M12.2666 12.7998H11.2V13.4331C10.3666 13.7265 9.9333 14.6398 10.2266 15.4665C10.4533 16.1065 11.06 16.5331 11.7333 16.5331C12.0266 16.5331 12.2666 16.7731 12.2666 17.0665C12.2666 17.3598 12.0266 17.5998 11.7333 17.5998H10.1333V18.6665H11.2V19.1998H12.2666V18.5665C13.1 18.2731 13.5333 17.3598 13.24 16.5331C13.0133 15.8931 12.4066 15.4665 11.7333 15.4665C11.44 15.4665 11.2 15.2265 11.2 14.9331C11.2 14.6398 11.44 14.3998 11.7333 14.3998H13.3333V13.3331H12.2666V12.7998Z" fill="#4E4E4E"/>
<path fill-rule="evenodd" clip-rule="evenodd" d="M11.7467 10.6533C14.6867 10.66 17.0733 13.0533 17.0667 16C17.0667 17.68 16.2667 19.2667 14.92 20.2667H14.9333C15.2267 20.2667 15.4667 20.5067 15.4667 20.8V23.4667C15.4667 23.76 15.2267 24 14.9333 24H13.8667V25.6H14.9333C15.2267 25.6 15.4667 25.84 15.4667 26.1333V28.8C15.4667 29.0933 15.2267 29.3333 14.9333 29.3333H13.8667V30.9333H17.0667V32H1.06667C0.480003 32 0 31.52 0 30.9333V5.86667H0.00666809C0 5.72665 0.0599976 5.59332 0.153336 5.49335L5.48666 0.160004C5.59333 0.0599976 5.72667 0.00665283 5.86667 0.00665283V0H21.3333C21.92 0 22.4 0.480011 22.4 1.06668V12.8H21.3333V1.06668H6.4V5.33334C6.4 5.92001 5.92 6.39999 5.33334 6.39999H1.06667V30.9267H2.13333V28.7933C2.13333 28.5 2.37334 28.26 2.66666 28.26H3.73333V26.66H2.66666C2.37334 26.66 2.13333 26.42 2.13333 26.1267V23.46C2.13333 23.1667 2.37334 22.9267 2.66666 22.9267H3.73333V20.7933C3.73333 20.5 3.97334 20.26 4.26666 20.26H8.54667C7.19334 19.2533 6.4 17.66 6.4 15.9733C6.40667 13.0333 8.8 10.6467 11.7467 10.6533ZM5.33334 5.33334V1.82001L1.82 5.33334H5.33334ZM3.2 29.3333V30.9333H12.8V29.3333H3.2ZM4.8 28.2667H14.4V26.6667H4.8V28.2667ZM3.2 25.6H12.8V24H3.2V25.6ZM14.4 22.9333V21.3333H4.8V22.9333H14.4ZM11.7333 11.7333C9.38 11.7333 7.46667 13.6467 7.46667 16C7.46667 18.3533 9.38 20.2667 11.7333 20.2667C14.0867 20.2667 16 18.3533 16 16C16 13.6467 14.0867 11.7333 11.7333 11.7333Z" fill="#4E4E4E"/>
<path fill-rule="evenodd" clip-rule="evenodd" d="M20.8 19.2H29.3333C29.6267 19.2 29.8667 18.96 29.8667 18.6667V16.5333C29.8667 16.24 29.6267 16 29.3333 16H20.8C20.5067 16 20.2667 16.24 20.2667 16.5333V18.6667C20.2667 18.96 20.5067 19.2 20.8 19.2ZM21.3333 17.0667H28.8V18.1333H21.3333V17.0667Z" fill="#4E4E4E"/>
<path d="M29.8667 22.9336H26.6667V24.0003H29.8667V22.9336Z" fill="#4E4E4E"/>
<path d="M21.3333 23.9995H20.2667V22.9329H21.3333V21.8662H22.4V22.9329H23.4667V23.9995H22.4V25.0662H21.3333V23.9995Z" fill="#4E4E4E"/>
<path d="M22.62 27.3535L23.3733 28.1135L22.62 28.8669L23.3733 29.6202L22.62 30.3735L21.8667 29.6202L21.1133 30.3735L20.36 29.6202L21.1133 28.8669L20.36 28.1135L21.1133 27.3535L21.8667 28.1135L22.62 27.3535Z" fill="#4E4E4E"/>
<path d="M29.8667 28.2666H26.6667V29.3333H29.8667V28.2666Z" fill="#4E4E4E"/>
<path d="M27.7333 29.5996H28.8V30.1329H27.7333V29.5996Z" fill="#4E4E4E"/>
<path d="M28.8 27.4668H27.7333V28.0001H28.8V27.4668Z" fill="#4E4E4E"/>
<path fill-rule="evenodd" clip-rule="evenodd" d="M30.4 13.8662H19.7333C18.8466 13.8662 18.1333 14.5796 18.1333 15.4662V30.3995C18.1333 31.2862 18.8466 31.9995 19.7333 31.9995H30.4C31.2866 31.9995 32 31.2862 32 30.3995V15.4662C32 14.5796 31.2866 13.8662 30.4 13.8662ZM19.7333 14.9329H30.4C30.6933 14.9329 30.9333 15.1729 30.9333 15.4662V20.2662H19.2V15.4662C19.2 15.1729 19.44 14.9329 19.7333 14.9329ZM25.6 21.3329H30.9333V25.5995H25.6V21.3329ZM24.5333 25.5995H19.2V21.3329H24.5333V25.5995ZM19.2 30.3995V26.6662H24.5333V30.9329H19.7333C19.44 30.9329 19.2 30.6929 19.2 30.3995ZM30.4 30.9329H25.6V26.6662H30.9333V30.3995C30.9333 30.6929 30.6933 30.9329 30.4 30.9329Z" fill="#4E4E4E"/>
<path fill-rule="evenodd" clip-rule="evenodd" d="M25.0667 0H27.2C27.4933 0 27.7333 0.23999 27.7333 0.533325V2.13333H28.2667C28.56 2.13333 28.8 2.37332 28.8 2.66666H29.8667C30.4533 2.66666 30.9333 3.14667 30.9333 3.73334V10.6667H29.8667V3.73334H28.8V12.8H27.7333V3.20001H24.5333V12.8H23.4667V2.66666C23.4667 2.37332 23.7067 2.13333 24 2.13333H24.5333V0.533325C24.5333 0.23999 24.7733 0 25.0667 0ZM26.6667 1.06668H25.6V2.13333H26.6667V1.06668Z" fill="#4E4E4E"/>
<path d="M17.0667 4.2666H8V5.33328H17.0667V4.2666Z" fill="#4E4E4E"/>
<path d="M2.1333 7.4668H20.2666V8.53348H2.1333V7.4668Z" fill="#4E4E4E"/>
<path d="M8.5333 9.59961H2.1333V10.6663H8.5333V9.59961Z" fill="#4E4E4E"/>
<path d="M15.4667 9.59961H20.2667V10.6663H15.4667V9.59961Z" fill="#4E4E4E"/>
</svg>
