<svg width="33" height="32" viewBox="0 0 33 32" fill="none" xmlns="http://www.w3.org/2000/svg">
<path d="M31.5312 31.0625H29.9937V24.6188C30.3 24.35 30.4937 23.9563 30.4937 23.5125C30.4937 22.7 29.8312 22.0438 29.025 22.0438H25.9562L25.4813 14.4688C25.4688 14.2188 25.2625 14.0313 25.0125 14.0313H23.0063C22.7563 14.0313 22.5562 14.225 22.5375 14.4688L22.0625 22.0438H20.9375L20.4625 14.4688C20.45 14.2188 20.2437 14.0313 19.9937 14.0313H17.9875C17.7375 14.0313 17.5375 14.225 17.5187 14.4688L17.0625 22.0438H15.9375L15.4625 14.4688C15.45 14.2188 15.2437 14.0313 14.9937 14.0313H12.9875C12.7375 14.0313 12.5375 14.225 12.5188 14.4688L12.0437 22.0438H10.75L10.4625 8.97503C10.4562 8.71878 10.25 8.51878 9.99375 8.51878H6.9875C6.73125 8.51878 6.525 8.72503 6.51875 8.97503L6.18125 24.05H2.475C1.6625 24.05 1.00625 24.7125 1.00625 25.5188C1.00625 25.9563 1.2 26.3563 1.50625 26.625V31.0625H0.46875C0.2125 31.0625 0 31.275 0 31.5313C0 31.7875 0.2125 32 0.46875 32H31.5312C31.7875 32 32 31.7875 32 31.5313C32 31.275 31.7875 31.0625 31.5312 31.0625ZM29.5625 23.5125C29.5625 23.8063 29.325 24.0438 29.0312 24.0438H28.0312C27.775 24.0438 27.5625 24.2563 27.5625 24.5125C27.5625 24.7688 27.775 24.9813 28.0312 24.9813H29.0312C29.0438 24.9813 29.05 24.9813 29.0625 24.9813V31.0625H8.95625V24.9875C8.96875 24.9875 8.975 24.9875 8.9875 24.9875H26.025C26.2812 24.9875 26.4937 24.775 26.4937 24.5188C26.4937 24.2625 26.2812 24.05 26.025 24.05H8.9875C8.69375 24.05 8.45625 23.8125 8.45625 23.5188C8.45625 23.225 8.69375 22.9875 8.9875 22.9875H29.025C29.3188 22.9813 29.5625 23.2188 29.5625 23.5125ZM23.4562 14.9688H24.5812L25.025 22.05H23.0187L23.4562 14.9688ZM18.4438 14.9688H19.5688L20.0125 22.05H18L18.4438 14.9688ZM13.4312 14.9688H14.5562L15 22.05H12.9937L13.4312 14.9688ZM7.4375 9.45628H9.525L9.80625 22.0438H8.98125C8.16875 22.0438 7.5125 22.7063 7.5125 23.5125C7.5125 23.95 7.70625 24.35 8.0125 24.6188V31.0625H6.95625L7.4375 9.45628ZM2.4375 26.9875C2.45 26.9875 2.45625 26.9875 2.46875 26.9875C2.725 26.9875 2.9375 26.775 2.9375 26.5188C2.9375 26.2625 2.725 26.05 2.46875 26.05C2.175 26.05 1.9375 25.8125 1.9375 25.5188C1.9375 25.225 2.175 24.9875 2.46875 24.9875H6.15625L6.13125 26.0563H4.475C4.21875 26.0563 4.00625 26.2688 4.00625 26.525C4.00625 26.7813 4.21875 26.9938 4.475 26.9938H6.1125L6.025 31.0625H2.4375V26.9875Z" fill="#4E4E4E"/>
<path d="M7.98124 6.95C8.23749 6.95 8.44999 6.7375 8.44999 6.48125C8.44999 6.1875 8.68749 5.95 8.98124 5.95C9.07499 5.95 9.16249 5.975 9.24999 6.03125C9.38749 6.1125 9.56249 6.11875 9.71249 6.04375C9.85624 5.96875 9.94999 5.81875 9.96249 5.65625C10.0062 4.98125 10.5625 4.45 11.2375 4.45C11.45 4.45 11.6625 4.50625 11.8625 4.61875C11.9875 4.6875 12.1437 4.7 12.275 4.64375C12.4062 4.5875 12.5062 4.475 12.5437 4.33125C12.8437 3.21875 13.85 2.4375 15 2.4375C15.4375 2.4375 15.8687 2.55 16.2437 2.76875C16.4375 2.88125 16.6812 2.8375 16.8312 2.66875C17.5062 1.8875 18.4812 1.4375 19.5062 1.4375C20.3812 1.4375 21.225 1.7625 21.8812 2.3625C22.0625 2.53125 22.3437 2.525 22.5187 2.35C23.4687 1.4375 24.7125 0.9375 26.0187 0.9375C28.8 0.9375 31.0625 3.2 31.0625 5.98125C31.0625 8.7625 28.8 11.025 26.0187 11.025C24.175 11.025 22.475 10.0188 21.5875 8.39375C21.4687 8.175 21.2062 8.0875 20.9812 8.19375C20.5125 8.4125 20.0125 8.51875 19.5062 8.51875C18.4812 8.51875 17.5062 8.06875 16.8312 7.2875C16.6875 7.11875 16.4375 7.075 16.2437 7.1875C15.8625 7.4 15.4312 7.51875 15 7.51875C14.2062 7.51875 13.475 7.15625 12.9875 6.525C12.9 6.4125 12.7625 6.34375 12.6187 6.34375C12.475 6.34375 12.3375 6.4125 12.25 6.525C12 6.84375 11.6375 7.025 11.2437 7.025C10.9875 7.025 10.775 7.2375 10.775 7.49375C10.775 7.75 10.9875 7.9625 11.2437 7.9625C11.7375 7.9625 12.2125 7.79375 12.6 7.49375C13.2437 8.1125 14.0937 8.4625 15.0062 8.4625C15.4812 8.4625 15.9437 8.3625 16.3812 8.18125C17.2187 9 18.3375 9.46875 19.5187 9.46875C20.025 9.46875 20.5187 9.38125 20.9937 9.21875C22.0875 10.9312 23.9812 11.975 26.0312 11.975C29.3312 11.975 32.0125 9.29375 32.0125 5.99375C32.0125 2.69375 29.3187 0 26.0187 0C24.6062 0 23.2625 0.49375 22.1812 1.39375C21.4125 0.81875 20.475 0.5 19.5062 0.5C18.3312 0.5 17.2062 0.9625 16.3687 1.7875C15.9375 1.6 15.4687 1.50625 14.9937 1.50625C13.6 1.50625 12.3562 2.34375 11.8125 3.5875C11.625 3.5375 11.4312 3.50625 11.2375 3.50625C10.2687 3.50625 9.43749 4.1375 9.13749 5.01875C9.08749 5.0125 9.03124 5.0125 8.98124 5.0125C8.16874 5.0125 7.51249 5.675 7.51249 6.48125C7.51249 6.7375 7.72499 6.95 7.98124 6.95Z" fill="#4E4E4E"/>
<path d="M11.9937 26.05C11.7375 26.05 11.525 26.2625 11.525 26.5188V27.5188C11.525 27.775 11.7375 27.9875 11.9937 27.9875C12.25 27.9875 12.4625 27.775 12.4625 27.5188V26.5188C12.4625 26.2625 12.25 26.05 11.9937 26.05Z" fill="#4E4E4E"/>
<path d="M13.9938 26.05C13.7375 26.05 13.525 26.2625 13.525 26.5188V27.5188C13.525 27.775 13.7375 27.9875 13.9938 27.9875C14.25 27.9875 14.4625 27.775 14.4625 27.5188V26.5188C14.4625 26.2625 14.2563 26.05 13.9938 26.05Z" fill="#4E4E4E"/>
<path d="M16 26.05C15.7437 26.05 15.5312 26.2625 15.5312 26.5188V27.5188C15.5312 27.775 15.7437 27.9875 16 27.9875C16.2563 27.9875 16.4688 27.775 16.4688 27.5188V26.5188C16.4688 26.2625 16.2563 26.05 16 26.05Z" fill="#4E4E4E"/>
<path d="M18.0062 26.05C17.75 26.05 17.5375 26.2625 17.5375 26.5188V27.5188C17.5375 27.775 17.75 27.9875 18.0062 27.9875C18.2625 27.9875 18.475 27.775 18.475 27.5188V26.5188C18.475 26.2625 18.2625 26.05 18.0062 26.05Z" fill="#4E4E4E"/>
<path d="M20.0062 26.05C19.75 26.05 19.5375 26.2625 19.5375 26.5188V27.5188C19.5375 27.775 19.75 27.9875 20.0062 27.9875C20.2625 27.9875 20.475 27.775 20.475 27.5188V26.5188C20.475 26.2625 20.2687 26.05 20.0062 26.05Z" fill="#4E4E4E"/>
<path d="M22.0125 26.05C21.7562 26.05 21.5437 26.2625 21.5437 26.5188V27.5188C21.5437 27.775 21.7562 27.9875 22.0125 27.9875C22.2687 27.9875 22.4812 27.775 22.4812 27.5188V26.5188C22.4812 26.2625 22.2687 26.05 22.0125 26.05Z" fill="#4E4E4E"/>
<path d="M24.0188 26.05C23.7625 26.05 23.55 26.2625 23.55 26.5188V27.5188C23.55 27.775 23.7625 27.9875 24.0188 27.9875C24.275 27.9875 24.4875 27.775 24.4875 27.5188V26.5188C24.4875 26.2625 24.275 26.05 24.0188 26.05Z" fill="#4E4E4E"/>
<path d="M26.0188 26.05C25.7625 26.05 25.55 26.2625 25.55 26.5188V27.5188C25.55 27.775 25.7625 27.9875 26.0188 27.9875C26.275 27.9875 26.4875 27.775 26.4875 27.5188V26.5188C26.4875 26.2625 26.2813 26.05 26.0188 26.05Z" fill="#4E4E4E"/>
</svg>
