<svg width="32" height="32" viewBox="0 0 32 32" fill="none" xmlns="http://www.w3.org/2000/svg">
<path d="M13.1497 27.89L13.056 28.3446L13.1497 27.89C12.8935 27.8402 12.6435 28.0021 12.5935 28.2574C12.5435 28.5127 12.706 28.7556 12.9622 28.8054H12.9685C12.9997 28.8116 13.0247 28.8116 13.056 28.8116C13.2747 28.8116 13.4747 28.6559 13.5185 28.4318C13.5685 28.1827 13.3997 27.9398 13.1497 27.89ZM16.731 28.0395L16.7747 28.5065L16.731 28.0395C16.4747 28.0644 16.2872 28.2948 16.3122 28.5501C16.3372 28.7929 16.5435 28.9673 16.781 28.9673C16.7997 28.9673 16.8122 28.9673 16.831 28.9673H16.8435C17.0997 28.9361 17.281 28.7057 17.256 28.4504C17.2185 28.1951 16.9872 28.0146 16.731 28.0395ZM14.9372 28.0955H14.931C14.6747 28.0831 14.456 28.2823 14.4435 28.5438C14.431 28.7991 14.6372 29.0171 14.8935 29.0295C14.8997 29.0295 14.906 29.0295 14.9122 29.0295C15.1622 29.0295 15.3685 28.8365 15.381 28.5812C15.3935 28.3259 15.1935 28.108 14.9372 28.0955ZM11.4185 27.4168C11.1685 27.3296 10.906 27.4541 10.8185 27.697C10.731 27.9398 10.8622 28.2076 11.106 28.2948C11.156 28.3135 11.2122 28.3197 11.2622 28.3197C11.456 28.3197 11.6372 28.2014 11.706 28.0083C11.7872 27.7717 11.6622 27.504 11.4185 27.4168ZM18.4997 27.7094L18.6122 28.164L18.4997 27.7094C18.2497 27.7717 18.0997 28.027 18.1622 28.2761C18.2185 28.4878 18.406 28.6248 18.6185 28.6248C18.656 28.6248 18.6997 28.6186 18.7372 28.6123C18.7372 28.6123 18.7497 28.6123 18.7497 28.6061C18.9997 28.5376 19.1435 28.2823 19.0747 28.0332C19.006 27.7966 18.7497 27.6472 18.4997 27.7094ZM20.1935 27.1241L20.381 27.5538L20.1935 27.1241C19.956 27.23 19.8435 27.504 19.9497 27.7406C20.0247 27.9149 20.1997 28.0208 20.381 28.0208C20.4435 28.0208 20.506 28.0083 20.5685 27.9834L20.581 27.9772C20.8185 27.8713 20.9185 27.5974 20.8122 27.3607C20.706 27.1241 20.431 27.0183 20.1935 27.1241ZM9.62471 5.83455C9.69971 5.83455 9.77471 5.81587 9.84971 5.77851C10.081 5.6602 10.1622 5.37376 10.0435 5.1496C9.92471 4.91921 9.63721 4.83826 9.41221 4.95657H9.40596C9.17471 5.07488 9.09346 5.36131 9.21846 5.58548C9.29346 5.74738 9.45596 5.83455 9.62471 5.83455ZM4.20596 11.0526C4.27471 11.09 4.34971 11.1087 4.42471 11.1087C4.59346 11.1087 4.75596 11.0153 4.83721 10.8596L4.84346 10.8409C4.95596 10.6105 4.86221 10.3303 4.63096 10.2182C4.39971 10.1062 4.11846 10.1996 4.00596 10.4237C3.88721 10.6479 3.97471 10.9281 4.20596 11.0526ZM3.54346 12.8086C3.59346 12.8273 3.64346 12.8335 3.69346 12.8335C3.88721 12.8335 4.06846 12.709 4.13721 12.516L4.14346 12.4973C4.21846 12.2482 4.08096 11.9867 3.83096 11.912C3.58721 11.8372 3.32471 11.9742 3.24971 12.2171C3.16846 12.4599 3.29971 12.7277 3.54346 12.8086ZM5.13096 9.41499C5.21221 9.47725 5.31221 9.50216 5.40596 9.50216C5.54971 9.50216 5.69346 9.43367 5.78721 9.30913L5.79346 9.3029C5.94346 9.09119 5.89346 8.80476 5.68721 8.65531C5.47471 8.50587 5.18096 8.55568 5.03096 8.76117L5.40596 9.03515L5.02471 8.76117C4.87471 8.97288 4.91846 9.26554 5.13096 9.41499ZM8.03096 6.8433C8.13096 6.8433 8.23096 6.81217 8.31221 6.7499C8.51846 6.60045 8.56846 6.30779 8.41221 6.09608C8.26221 5.89059 7.96846 5.84078 7.75596 5.99645L7.74346 6.00268C7.53721 6.15835 7.49346 6.45101 7.65596 6.6565C7.74971 6.78103 7.89346 6.8433 8.03096 6.8433ZM3.12471 19.8885C3.18721 20.0878 3.37471 20.2186 3.57471 20.2186C3.61846 20.2186 3.66846 20.2123 3.71221 20.1999C3.95596 20.1252 4.09971 19.8636 4.02471 19.6208C3.95596 19.3779 3.69971 19.2285 3.44971 19.297C3.19971 19.3655 3.04971 19.6208 3.11846 19.8699C3.11846 19.8761 3.12471 19.8823 3.12471 19.8885ZM6.61846 8.07621C6.73721 8.07621 6.86221 8.0264 6.95596 7.933C7.13721 7.75242 7.13721 7.45353 6.95596 7.27295C6.77471 7.09237 6.47471 7.09237 6.29346 7.27295L6.28721 7.27918C6.10596 7.46598 6.11221 7.75865 6.29346 7.93922C6.38096 8.03263 6.49971 8.07621 6.61846 8.07621ZM3.64346 17.8524C3.61221 17.5971 3.37471 17.4165 3.12471 17.4476C2.86846 17.4787 2.68721 17.7091 2.71221 17.9644V17.9831C2.74346 18.2135 2.94346 18.3816 3.17471 18.3816C3.19971 18.3816 3.21846 18.3816 3.24346 18.3754C3.49971 18.3443 3.68096 18.1077 3.64346 17.8524ZM3.05596 16.5136C3.06221 16.5136 3.06846 16.5136 3.06846 16.5136C3.31846 16.5136 3.53096 16.3143 3.53721 16.059V16.0403C3.53721 15.785 3.32471 15.5733 3.06846 15.5733C2.81221 15.5733 2.60596 15.7788 2.59971 16.0341C2.59346 16.2956 2.79346 16.5074 3.05596 16.5136ZM3.15596 14.6455C3.18096 14.6518 3.21221 14.6518 3.23721 14.6518C3.46221 14.6518 3.65596 14.4899 3.69971 14.2657C3.69971 14.2595 3.69971 14.2532 3.70596 14.247C3.74346 13.9917 3.56846 13.7551 3.31221 13.7177C3.05596 13.6804 2.82471 13.8547 2.78096 14.1038C2.73096 14.3591 2.89971 14.5957 3.15596 14.6455ZM25.2685 9.56443C25.3622 9.69519 25.506 9.76369 25.656 9.76369C25.7497 9.76369 25.8372 9.73878 25.9185 9.68274C26.131 9.53952 26.1872 9.24686 26.0372 9.03515L25.6497 9.29668L26.0372 9.03515C25.8935 8.82344 25.5997 8.7674 25.3872 8.91061C25.1747 9.05383 25.1185 9.34649 25.2622 9.5582L25.2685 9.56443ZM27.6622 14.2657C27.406 14.2968 27.2185 14.5272 27.2497 14.7825V14.8012C27.281 15.0316 27.481 15.1997 27.7122 15.1997C27.7372 15.1997 27.756 15.1997 27.781 15.1935C28.0372 15.1561 28.2122 14.9257 28.181 14.6704C28.1497 14.4214 27.9185 14.2346 27.6622 14.2657ZM26.8685 12.9456C26.931 13.1573 27.1185 13.2881 27.3185 13.2881C27.3622 13.2881 27.406 13.2819 27.4497 13.2694C27.6997 13.1947 27.8435 12.9394 27.7685 12.6903V12.6841C27.6935 12.435 27.4372 12.2918 27.1872 12.3665C26.9435 12.4412 26.7997 12.6965 26.8685 12.9456ZM26.2122 11.2021C26.2935 11.3702 26.4622 11.4636 26.6372 11.4636C26.706 11.4636 26.7747 11.4512 26.8435 11.4138C27.0747 11.3017 27.1747 11.0215 27.056 10.7911L26.631 10.9904L27.056 10.7911C26.9435 10.5545 26.6685 10.4549 26.431 10.567C26.1935 10.679 26.0935 10.953 26.206 11.1896L26.2122 11.2021ZM24.0872 8.10735C24.181 8.20075 24.2997 8.25057 24.4247 8.25057C24.5435 8.25057 24.6622 8.20698 24.756 8.1198C24.9372 7.93922 24.9435 7.64656 24.7685 7.46598C24.5935 7.27918 24.2997 7.26673 24.106 7.44108C23.9185 7.61543 23.906 7.91432 24.081 8.10112L24.0872 8.10735ZM27.8122 16.2147C27.556 16.2085 27.3372 16.4077 27.331 16.663C27.3185 16.9183 27.5185 17.1363 27.7747 17.1487C27.781 17.1487 27.7935 17.1487 27.7997 17.1487C28.0435 17.1487 28.256 16.9557 28.2685 16.7066V16.6879C28.2747 16.4326 28.0747 16.2209 27.8122 16.2147ZM21.0872 5.80964L21.0997 5.81587C21.1685 5.85323 21.2435 5.87191 21.3185 5.87191C21.4872 5.87191 21.6497 5.78474 21.731 5.62284C21.856 5.39867 21.7685 5.11224 21.5435 4.9877L21.3185 5.39867L21.5435 4.9877C21.3185 4.86316 21.031 4.94411 20.906 5.17451C20.781 5.4049 20.8622 5.69133 21.0872 5.80964ZM22.6747 6.83707L22.681 6.8433C22.7685 6.90557 22.8622 6.9367 22.9622 6.9367C23.106 6.9367 23.2435 6.87443 23.3372 6.7499C23.4935 6.54441 23.456 6.25175 23.2497 6.09608H23.2435C23.0372 5.94041 22.7435 5.97777 22.5872 6.18326C22.431 6.38874 22.4685 6.6814 22.6747 6.83707ZM31.7122 23.2822L29.5122 21.0841C29.3247 20.8973 29.0747 20.7914 28.8122 20.7914C28.5497 20.7914 28.2997 20.8973 28.1122 21.0841L28.0622 21.1339L27.9185 20.9907C27.7372 20.8101 27.5997 20.6046 27.506 20.3805C27.4997 20.3493 27.4872 20.3244 27.4747 20.2933C27.406 20.094 27.3685 19.8761 27.3685 19.6581V19.0355C27.4122 19.0604 27.456 19.0728 27.506 19.0853C27.531 19.0915 27.5622 19.0915 27.5872 19.0915C27.8122 19.0915 28.006 18.9358 28.0497 18.7117C28.0997 18.4564 27.9372 18.2135 27.681 18.1637C27.5685 18.1388 27.456 18.1637 27.3685 18.2135C27.3372 17.5472 27.0685 16.9308 26.5935 16.4575L24.4497 14.3217C23.9685 13.8423 23.331 13.5807 22.656 13.5807C22.131 13.5807 21.631 13.7364 21.2122 14.0353L20.9872 13.8111V8.46851C20.9872 7.82714 20.7497 7.20446 20.3247 6.71876C20.0247 6.37629 19.856 5.93418 19.856 5.47339V5.0811H19.8872C20.431 5.0811 20.881 4.639 20.881 4.09104V0.990068C20.8747 0.442106 20.431 0 19.8872 0H11.131C10.5872 0 10.1372 0.442106 10.1372 0.990068V4.09726C10.1372 4.639 10.581 5.08733 11.131 5.08733H11.206V5.29282C11.206 5.79719 11.0122 6.27043 10.6497 6.62536L9.70596 7.56561C9.20596 8.06376 8.93096 8.73003 8.93096 9.43989V12.4537C8.93096 12.8647 9.03096 13.2507 9.20596 13.5932C8.58721 13.6306 8.00596 13.8859 7.56221 14.328L5.42471 16.4575C4.92471 16.9557 4.64971 17.622 4.64971 18.3318V19.6644C4.64971 20.1687 4.45596 20.642 4.09971 20.9969L3.95596 21.1401L3.90596 21.0903C3.71846 20.9035 3.46846 20.7977 3.20596 20.7977C2.94346 20.7977 2.69346 20.9035 2.50596 21.0903L0.287207 23.2822C-0.100293 23.6682 -0.100293 24.2909 0.287207 24.677L1.04346 25.4304C1.22471 25.611 1.52471 25.611 1.70596 25.4304C1.88721 25.2498 1.88721 24.951 1.70596 24.7704L0.949707 24.0169C0.930957 23.9983 0.930957 23.9609 0.949707 23.9422L3.14971 21.7441C3.16846 21.7255 3.20596 21.7255 3.22471 21.7441L3.60596 22.124L8.83096 27.3358L9.41846 27.9212C9.43721 27.9398 9.43721 27.9772 9.41846 27.9959L7.21846 30.2002C7.19971 30.2189 7.16221 30.2189 7.14346 30.2002L3.03096 26.0967C2.84971 25.9161 2.54971 25.9161 2.36846 26.0967C2.18721 26.2773 2.18721 26.5762 2.36846 26.7567L6.48096 30.8602C6.66846 31.047 6.91846 31.1529 7.18096 31.1529C7.44346 31.1529 7.69346 31.047 7.88096 30.8602L10.081 28.6622C10.4685 28.2761 10.4685 27.6534 10.081 27.2673L10.056 27.2424L10.331 26.9685C10.656 26.6447 11.0872 26.4516 11.5435 26.4205C12.1872 26.3769 12.7935 26.1029 13.2497 25.6484L15.2685 23.6309C15.8497 23.4814 16.306 23.0082 16.431 22.4104C16.6372 22.51 16.8685 22.5661 17.1185 22.5661C17.9997 22.5661 18.7185 21.85 18.7185 20.972V19.8636C18.9185 19.957 19.1435 20.0068 19.381 20.0068C20.2622 20.0068 20.981 19.2908 20.981 18.4128V15.1312L22.4247 16.5759C22.5185 16.6693 22.6372 16.7128 22.756 16.7128C22.8747 16.7128 22.9935 16.6693 23.0872 16.5759C23.2685 16.3953 23.2685 16.0964 23.0872 15.9158L21.8872 14.714C22.1185 14.5833 22.381 14.521 22.656 14.521C23.081 14.521 23.4872 14.6891 23.7872 14.988L25.9247 17.1176C26.2497 17.4414 26.431 17.871 26.431 18.3318V19.6644C26.431 20.4178 26.7247 21.1277 27.256 21.657L27.3997 21.8002L26.7122 22.4789L22.5997 26.5824L22.3685 26.352L22.3622 26.3458L22.3247 26.3084C21.8372 25.8227 21.1935 25.5301 20.5122 25.4865C20.0935 25.4616 19.706 25.281 19.406 24.9883L17.8685 23.4627C17.6872 23.2822 17.3872 23.2822 17.206 23.4627C17.0247 23.6433 17.0247 23.9422 17.206 24.1228L18.7435 25.6484C19.1997 26.1029 19.806 26.3769 20.4497 26.4205C20.906 26.4516 21.3372 26.6447 21.6622 26.9685L21.6872 26.9934C21.6997 27.0058 21.7122 27.0183 21.7247 27.0307L21.9435 27.2487L21.9185 27.2736C21.531 27.6596 21.531 28.2823 21.9185 28.6684L24.1185 30.8665C24.306 31.0533 24.556 31.1591 24.8185 31.1591C25.081 31.1591 25.331 31.0533 25.5185 30.8665L31.7122 24.6894C32.0935 24.2971 32.0935 23.6682 31.7122 23.2822ZM27.6747 18.6432H27.6685L27.581 18.6245L27.6747 18.6432ZM12.5935 24.9883C12.2997 25.281 11.906 25.4616 11.4872 25.4865C10.7997 25.5301 10.156 25.8227 9.67471 26.3084L9.39971 26.5824L9.14971 26.3333C9.14346 26.3271 9.14346 26.3271 9.13721 26.3209L4.60596 21.7939L4.74971 21.6507C5.28096 21.1215 5.57471 20.4116 5.57471 19.6581V18.3256C5.57471 17.8648 5.75596 17.4352 6.08096 17.1114L8.21846 14.9818C8.51846 14.6829 8.92471 14.5148 9.34971 14.5148C9.62471 14.5148 9.88721 14.5833 10.1185 14.714L8.91221 15.9158C8.73096 16.0964 8.73096 16.3953 8.91221 16.5759C9.00596 16.6693 9.12471 16.7128 9.24346 16.7128C9.36221 16.7128 9.48096 16.6693 9.57471 16.5759L11.0122 15.1375V20.9658C11.0122 21.8438 11.731 22.5599 12.6122 22.5599C12.8622 22.5599 13.0935 22.5038 13.306 22.4042C13.3997 22.865 13.6997 23.2573 14.0997 23.4814L12.5935 24.9883ZM20.0435 18.4128C20.0435 18.7802 19.7435 19.0728 19.381 19.0728C19.0185 19.0728 18.7185 18.7739 18.7185 18.4128V13.2009C18.7185 12.9456 18.506 12.7339 18.2497 12.7339C17.9935 12.7339 17.781 12.9456 17.781 13.2009V20.972C17.781 21.3394 17.4872 21.6321 17.1185 21.6321C16.7935 21.6321 16.5185 21.3954 16.4685 21.0779V13.1947C16.4685 12.9394 16.256 12.7277 15.9997 12.7277C15.9185 12.7277 15.8372 12.7526 15.7685 12.7899C15.6185 12.8709 15.5185 13.0266 15.5185 13.2009V20.972C15.5185 21.0343 15.5247 21.0903 15.531 21.1464V22.0866C15.531 22.454 15.2372 22.7467 14.8685 22.7467C14.506 22.7467 14.206 22.4478 14.206 22.0866V13.1885C14.206 12.9332 13.9935 12.7214 13.7372 12.7214C13.481 12.7214 13.2685 12.9332 13.2685 13.1885V20.972C13.2685 21.3394 12.9747 21.6321 12.606 21.6321C12.2435 21.6321 11.9435 21.3332 11.9435 20.972V12.2856C11.9435 12.0303 11.731 11.8185 11.4747 11.8185C11.2185 11.8185 11.006 12.0303 11.006 12.2856V13.8921C10.9685 13.9045 10.931 13.9232 10.8935 13.9481C10.2872 13.724 9.85596 13.1386 9.85596 12.4537V9.43989C9.85596 8.97911 10.0372 8.54946 10.3622 8.22566L11.306 7.28541C11.8372 6.75612 12.131 6.04626 12.131 5.29282V5.08733H13.0747C13.331 5.08733 13.5435 4.87562 13.5435 4.62032C13.5435 4.36502 13.331 4.1533 13.0747 4.1533H11.1247C11.0935 4.1533 11.0685 4.1284 11.0685 4.09726V0.990068C11.0685 0.958934 11.0935 0.934026 11.1247 0.934026H19.881C19.9122 0.934026 19.9372 0.958934 19.9372 0.990068V4.09726C19.9372 4.1284 19.9122 4.1533 19.881 4.1533H15.281C15.0247 4.1533 14.8122 4.36502 14.8122 4.62032C14.8122 4.87562 15.0247 5.08733 15.281 5.08733H18.9122V5.47962C18.9122 6.16457 19.1622 6.82462 19.6122 7.34145C19.8872 7.65279 20.0372 8.05754 20.0372 8.47473V18.4128H20.0435ZM31.0497 24.0232L24.856 30.2002C24.8435 30.2126 24.831 30.2189 24.8185 30.2189C24.806 30.2189 24.7935 30.2126 24.781 30.2002L22.581 28.0021C22.5622 27.9834 22.5622 27.9461 22.581 27.9274L22.9372 27.5725L26.531 23.9858L28.7747 21.7504C28.7935 21.7317 28.831 21.7317 28.8497 21.7504L31.0497 23.9484C31.0685 23.9671 31.0685 23.9983 31.0497 24.0232ZM12.6122 2.0424C12.3372 2.0424 12.1122 2.26657 12.1122 2.54055C12.1122 2.81453 12.3372 3.0387 12.6122 3.0387C12.8872 3.0387 13.1122 2.81453 13.1122 2.54055C13.1122 2.26657 12.8872 2.0424 12.6122 2.0424ZM28.9622 23.332C28.6872 23.332 28.4622 23.5561 28.4622 23.8301C28.4622 24.1041 28.6872 24.3283 28.9622 24.3283C29.2372 24.3283 29.4622 24.1041 29.4622 23.8301C29.4622 23.5561 29.2372 23.332 28.9622 23.332ZM7.81221 28.0955C7.81221 27.8215 7.58721 27.5974 7.31221 27.5974C7.03721 27.5974 6.81221 27.8215 6.81221 28.0955C6.81221 28.3695 7.03721 28.5937 7.31221 28.5937C7.58721 28.5937 7.81221 28.3695 7.81221 28.0955Z" fill="#4E4E4E"/>
</svg>
