<svg width="32" height="32" viewBox="0 0 32 32" fill="none" xmlns="http://www.w3.org/2000/svg">
<path d="M0.664688 31.7151C0.294362 31.7151 0 31.4208 0 31.0504V5.60237C0 5.23205 0.294362 4.93769 0.664688 4.93769H3.03858V0.664688C3.03858 0.294362 3.33294 0 3.70326 0H13.0089C14.1769 0 15.2783 0.569733 15.9715 1.5003L16.0475 1.60475L16.1234 1.5003C16.8166 0.569733 17.9181 0 19.0861 0H28.2967C28.6671 0 28.9614 0.294362 28.9614 0.664688V4.93769H31.3353C31.7056 4.93769 32 5.23205 32 5.60237V31.0504C32 31.4208 31.7056 31.7151 31.3353 31.7151H0.664688ZM28.9614 30.3858H30.6706V6.26706H28.9614V30.3858ZM19.0861 28.6766C18.0795 28.6766 17.1869 29.3128 16.8451 30.2623L16.8071 30.3858H27.632V28.6766H19.0861ZM4.36795 30.3858H15.2878L15.2404 30.2623C14.908 29.3128 14.0059 28.6766 12.9994 28.6766H4.36795V30.3858ZM1.32938 30.3858H3.03858V6.26706H1.32938V30.3858ZM16.7122 28.2208L16.8641 28.1068C17.5003 27.6226 18.2884 27.3472 19.0861 27.3472H27.632V1.32938H19.0861C17.7757 1.32938 16.7122 2.39288 16.7122 3.70326V5.34599L16.7976 5.35549C20.4724 5.65935 23.568 8.13769 24.6599 11.6605C25.7614 15.1834 24.622 18.9721 21.7733 21.3175C20.3585 22.476 18.6398 23.1786 16.8166 23.3306H16.7976H16.7027V28.2208H16.7122ZM4.36795 27.3472H13.0089C13.8065 27.3472 14.5947 27.6226 15.2309 28.1068L15.3828 28.2208V23.3306L15.2973 23.3211C11.6226 23.0172 8.5365 20.5389 7.43502 17.016C6.33353 13.4932 7.4635 9.70445 10.3217 7.35905C11.5276 6.37151 12.9709 5.70682 14.5092 5.44095C14.7656 5.39347 15.0315 5.36498 15.3068 5.3365L15.3923 5.327V3.70326C15.3923 2.39288 14.3288 1.32938 13.0184 1.32938H4.36795V27.3472ZM16.0475 19.5608C15.3638 19.5608 14.6801 19.6558 14.0249 19.8362L13.9205 19.8647L13.968 19.9691C14.0344 20.1211 14.1199 20.311 14.2243 20.4819C14.7751 21.4884 15.4303 22.0392 16.057 22.0392C16.6837 22.0392 17.3389 21.4884 17.8896 20.4819C17.9751 20.3205 18.0605 20.1496 18.1365 19.9691L18.184 19.8647L18.0795 19.8362C17.4148 19.6558 16.7312 19.5608 16.0475 19.5608ZM12.4677 20.4534C12.3062 20.5294 12.1448 20.6148 11.9929 20.7098L11.8599 20.7953L12.0688 20.9187C12.3347 21.0801 12.6101 21.232 12.895 21.3555C12.9234 21.365 12.9424 21.3745 12.9709 21.384L13.2843 21.5074L13.1418 21.27C13.1228 21.2415 13.1134 21.2226 13.0944 21.1941C13.0754 21.1656 13.0564 21.1371 13.0374 21.1086C12.9234 20.8997 12.8095 20.6718 12.705 20.4344L12.6671 20.3395L12.4677 20.4534ZM19.3804 20.4439C19.276 20.6813 19.162 20.9092 19.0481 21.1181C19.0291 21.1466 19.0101 21.1751 18.9911 21.2131C18.9721 21.232 18.9626 21.2605 18.9436 21.289L18.8012 21.5264L19.0671 21.422C19.0861 21.4125 19.105 21.403 19.124 21.403C19.1525 21.3935 19.1715 21.384 19.1905 21.3745C19.4754 21.2415 19.7507 21.0991 20.0071 20.9377C20.0356 20.9187 20.0641 20.8997 20.0926 20.8807L20.216 20.7953L20.0926 20.7193C19.9407 20.6243 19.7697 20.5389 19.6178 20.4629L19.4089 20.3585L19.3804 20.4439ZM20.4914 15.0979C20.4439 16.4178 20.2445 17.7377 19.8837 19.0101L19.8647 19.0861L19.9407 19.124C20.3964 19.3424 20.8427 19.5988 21.251 19.8932L21.3175 19.9407L21.3745 19.8837C22.6944 18.6208 23.5205 16.9306 23.7009 15.1169L23.7104 15.0125H20.5009L20.4914 15.0979ZM8.39406 15.1074C8.57448 16.9211 9.40059 18.6113 10.7205 19.8742L10.7774 19.9312L10.8439 19.8837C11.2617 19.5893 11.6985 19.3329 12.1638 19.1145L12.2398 19.0766L12.2208 19.0006C11.8599 17.7282 11.6605 16.4083 11.6131 15.0884V14.9935H8.38457L8.39406 15.1074ZM16.0475 18.2315C16.8926 18.2315 17.7282 18.3549 18.5353 18.5828L18.6303 18.6113L18.6588 18.5163C18.9531 17.4053 19.1335 16.2469 19.1715 15.0979V15.003H12.9329V15.0979C12.9709 16.2564 13.1418 17.4053 13.4457 18.5163L13.4742 18.6113L13.5691 18.5828C14.3668 18.3549 15.2024 18.2315 16.0475 18.2315ZM10.7205 8.80237C9.40059 10.0653 8.58398 11.7555 8.39406 13.5691L8.38457 13.6736H11.5941V13.5786C11.6415 12.2588 11.8409 10.9389 12.2018 9.66647L12.2208 9.5905L12.1448 9.55252C11.689 9.33412 11.2427 9.07774 10.8344 8.78338L10.768 8.7359L10.7205 8.80237ZM21.251 8.79288C20.8332 9.08724 20.3964 9.34362 19.9312 9.56202L19.8552 9.6L19.8742 9.67596C20.235 10.9484 20.4344 12.2682 20.4819 13.5881V13.6831H23.6914L23.6819 13.5786C23.5015 11.765 22.6754 10.0748 21.3555 8.81187L21.2985 8.7549L21.251 8.79288ZM13.4457 10.1602C13.1513 11.2712 12.9709 12.4297 12.9329 13.5786V13.6736H19.1715V13.5786C19.1335 12.4202 18.9626 11.2712 18.6588 10.1602L18.6303 10.0653L18.5353 10.0938C17.7282 10.3312 16.8926 10.4451 16.0475 10.4451C15.2024 10.4451 14.3668 10.3217 13.5596 10.0938L13.4647 10.0653L13.4457 10.1602ZM14.1389 8.34659C14.0724 8.47003 14.0154 8.60297 13.9585 8.71691L13.911 8.82137L14.0154 8.84985C14.6801 9.02077 15.3638 9.11573 16.0475 9.11573C16.7312 9.11573 17.4148 9.02077 18.07 8.84036L18.1745 8.81187L18.127 8.70742C18.0605 8.55549 17.9751 8.36558 17.8706 8.19466C17.3294 7.19763 16.6742 6.64688 16.0475 6.64688C15.4208 6.64688 14.7751 7.19763 14.2148 8.20415L14.1389 8.34659ZM13.0184 7.26409C12.9994 7.27359 12.9804 7.28309 12.9614 7.28309C12.9329 7.29258 12.9139 7.30208 12.8855 7.31157C12.6006 7.43501 12.3252 7.58694 12.0688 7.74837C12.0404 7.76736 12.0119 7.78635 11.9834 7.80534L11.8599 7.8908L11.9834 7.96677C12.1353 8.06172 12.3062 8.14718 12.4582 8.22315L12.6671 8.3276L12.705 8.23264C12.8095 7.99525 12.9234 7.76736 13.0374 7.55846C13.0564 7.52997 13.0754 7.50148 13.0944 7.4635C13.1134 7.44451 13.1228 7.41602 13.1418 7.38754L13.2843 7.15015L13.0184 7.26409ZM18.9531 7.39703C18.9721 7.42552 18.9816 7.44451 19.0006 7.4635C19.0196 7.49199 19.0386 7.52047 19.0576 7.55846C19.1715 7.76736 19.2855 7.99525 19.3899 8.23264L19.4279 8.3276L19.6273 8.22315C19.7887 8.14718 19.9501 8.06172 20.1116 7.96677L20.2445 7.88131L20.0356 7.75786C19.7697 7.59644 19.4944 7.44451 19.2095 7.32107L19.162 7.30208C19.143 7.29258 19.1145 7.28309 19.0955 7.27359L18.8107 7.15964L18.9531 7.39703Z" fill="#4E4E4E"/>
</svg>
