<svg width="28" height="32" viewBox="0 0 28 32" fill="none" xmlns="http://www.w3.org/2000/svg">
<path d="M0.345914 10.3645L9.17079 7.87029V3.51944H3.57221V4.51963H4.40726C4.66662 4.51963 4.88171 4.73217 4.88171 4.98847V6.9326C4.88171 7.1889 4.66662 7.40145 4.40726 7.40145H1.78193C1.52256 7.40145 1.30748 7.1889 1.30748 6.9326V4.99473C1.30748 4.73843 1.52256 4.52588 1.78193 4.52588H2.61698V3.52569H0.472436C0.238371 3.52569 0.0359367 3.35065 0.00430631 3.11936C-0.0273241 2.88806 0.118175 2.66927 0.345914 2.60051L9.50607 0.0125024H9.51872C9.52505 0.0125024 9.52505 0.0125024 9.53138 0.0125024C9.54403 0.0125024 9.55035 0.00625122 9.56301 0.00625122C9.56933 0.00625122 9.57566 0.00625122 9.58831 0C9.59464 0 9.60096 0 9.61362 0C9.62627 0 9.63259 0 9.64525 0C9.65157 0 9.65157 0 9.6579 0H17.4959C17.5022 0 17.5022 0 17.5086 0C17.5212 0 17.5275 0 17.5402 0C17.5465 0 17.5528 0 17.5592 0C17.5655 0 17.5718 0 17.5845 0.00625122C17.5971 0.00625122 17.6035 0.0125024 17.6161 0.0125024C17.6224 0.0125024 17.6224 0.0125024 17.6288 0.0125024H17.6414L26.8079 2.60051C27.0356 2.66302 27.1811 2.88806 27.1495 3.11936C27.1179 3.35065 26.9154 3.52569 26.6814 3.52569H24.5368V4.52588H25.3655C25.6249 4.52588 25.84 4.73843 25.84 4.99473V6.9326C25.84 7.1889 25.6249 7.40145 25.3655 7.40145H22.7465C22.4872 7.40145 22.2721 7.1889 22.2721 6.9326V4.99473C22.2721 4.73843 22.4872 4.52588 22.7465 4.52588H23.5816V3.52569H17.9767V7.88279L26.8079 10.3645C27.0356 10.427 27.1811 10.6521 27.1495 10.8834C27.1179 11.1147 26.9154 11.2897 26.6814 11.2897H24.5368V12.2899H25.3655C25.6249 12.2899 25.84 12.5024 25.84 12.7587V14.7029C25.84 14.9592 25.6249 15.1717 25.3655 15.1717H22.7465C22.4872 15.1717 22.2721 14.9592 22.2721 14.7029V12.7587C22.2721 12.5024 22.4872 12.2899 22.7465 12.2899H23.5816V11.2897H17.9767V15.9344L19.9188 22.6544L19.9251 22.6669L21.7913 29.1182H22.7402C22.9996 29.1182 23.2147 29.3307 23.2147 29.587V31.0623H24.1889C24.4483 31.0623 24.6634 31.2749 24.6634 31.5312C24.6634 31.7875 24.4483 32 24.1889 32H2.95226C2.69289 32 2.4778 31.7875 2.4778 31.5312C2.4778 31.2749 2.69289 31.0623 2.95226 31.0623H3.92647V29.587C3.92647 29.3307 4.14156 29.1182 4.40093 29.1182H5.34984L7.22236 22.6732L7.22869 22.6607L9.17079 15.9406V11.296H3.57221V12.2962H4.40726C4.66662 12.2962 4.88171 12.5087 4.88171 12.765V14.7091C4.88171 14.9654 4.66662 15.178 4.40726 15.178H1.78193C1.52256 15.178 1.30748 14.9654 1.30748 14.7091V12.765C1.30748 12.5087 1.52256 12.2962 1.78193 12.2962H2.61698V11.296H0.472436C0.238371 11.296 0.0359367 11.1209 0.00430631 10.8896C-0.0273241 10.6521 0.118175 10.4333 0.345914 10.3645ZM2.26272 6.46376H3.9328V5.46357H2.26272V6.46376ZM23.221 6.46376H24.8911V5.46357H23.221V6.46376ZM23.221 14.234H24.8911V13.2338H23.221V14.234ZM2.26272 14.234H3.9328V13.2338H2.26272V14.234ZM17.2302 16.7595L14.4025 18.7162L18.6409 21.648L17.2302 16.7595ZM15.9966 16.4657H11.1509L13.5737 18.141L15.9966 16.4657ZM13.5737 19.2913L9.18344 22.3231H17.964L13.5737 19.2913ZM19.1723 23.4671L14.6428 25.705L20.6842 28.6931L19.1723 23.4671ZM17.458 23.2608H9.69586L13.5801 25.1799L17.458 23.2608ZM7.98149 23.4671L6.46956 28.6931L12.511 25.705L7.98149 23.4671ZM12.745 18.7162L9.91727 16.7595L8.50655 21.648L12.745 18.7162ZM17.0278 15.528V11.696L11.2141 15.528H17.0278ZM17.0278 3.93202L11.2141 7.76402H17.0278V3.93202ZM17.0278 8.7017H10.1197V10.352H17.0278V8.7017ZM10.1197 7.35144L15.9334 3.51944H10.1197V7.35144ZM9.17079 2.58175V1.08771L3.86954 2.58175H9.17079ZM10.1197 0.931432V2.58175H17.0278V0.931432H10.1197ZM17.9767 1.08771V2.58175H23.2843L17.9767 1.08771ZM17.9767 8.85173V10.3458H23.2843L17.9767 8.85173ZM4.88171 31.0623H22.2721V30.0621H16.9519C16.6925 30.0621 16.4774 29.8496 16.4774 29.5933C16.4774 29.337 16.6925 29.1244 16.9519 29.1244H19.4254L13.5801 26.2364L7.73477 29.1244H14.8263C15.0857 29.1244 15.3008 29.337 15.3008 29.5933C15.3008 29.8496 15.0857 30.0621 14.8263 30.0621H4.88171V31.0623ZM10.1197 15.1217L15.9334 11.2897H10.1197V15.1217ZM9.17079 10.352V8.85798L3.86954 10.352H9.17079Z" fill="#4E4E4E"/>
</svg>
