<svg width="31" height="32" viewBox="0 0 31 32" fill="none" xmlns="http://www.w3.org/2000/svg">
<path d="M28.1624 2.95203C28.1624 2.62731 27.8967 2.36162 27.572 2.36162H3.12915C2.80443 2.36162 2.53875 2.62731 2.53875 2.95203V20.31C2.53875 20.6347 2.80443 20.9004 3.12915 20.9004H27.572C27.8967 20.9004 28.1624 20.6347 28.1624 20.31V2.95203ZM26.9816 4.99877H17.8106C17.6531 4.99877 17.5055 5.05781 17.3973 5.17589L15.7245 6.84871C15.5474 6.77983 15.3506 6.73063 15.1341 6.73063C14.2681 6.73063 13.5597 7.43911 13.5597 8.30504C13.5597 9.17097 14.2681 9.87946 15.1341 9.87946C16 9.87946 16.7085 9.17097 16.7085 8.30504C16.7085 8.07872 16.6593 7.86224 16.5707 7.66544L18.0566 6.17958H26.9816V16.0984H22.2878C22.0517 15.5178 21.4908 15.1144 20.8315 15.1144C19.9656 15.1144 19.2571 15.8229 19.2571 16.6888C19.2571 17.5547 19.9656 18.2632 20.8315 18.2632C21.4908 18.2632 22.0517 17.8598 22.2878 17.2792H26.9816V19.7196H3.71956V17.0627H8.61009C8.84625 17.6433 9.40713 18.0467 10.0664 18.0467C10.9323 18.0467 11.6408 17.3383 11.6408 16.4723C11.6408 15.6064 10.9323 14.8979 10.0664 14.8979C9.40713 14.8979 8.84625 15.3014 8.61009 15.8819H3.71956V14.5633H12.7724L14.2583 16.0492C14.1697 16.246 14.1205 16.4625 14.1205 16.6888C14.1205 17.5547 14.829 18.2632 15.695 18.2632C16.5609 18.2632 17.2694 17.5547 17.2694 16.6888C17.2694 15.8229 16.5609 15.1144 15.695 15.1144C15.4883 15.1144 15.2915 15.1538 15.1046 15.2325L13.4317 13.5597C13.3235 13.4514 13.1661 13.3825 13.0184 13.3825H3.71956V12.2214H19.9459C20.182 12.802 20.7429 13.2054 21.4022 13.2054C22.2681 13.2054 22.9766 12.4969 22.9766 11.631C22.9766 10.7651 22.2681 10.0566 21.4022 10.0566C20.7429 10.0566 20.182 10.46 19.9459 11.0406H3.71956V9.87946H7.78352C7.94096 9.87946 8.08856 9.82042 8.1968 9.70234L9.86962 8.02952C10.0467 8.0984 10.2435 8.1476 10.46 8.1476C11.326 8.1476 12.0344 7.43911 12.0344 6.57319C12.0344 5.70726 11.326 4.99877 10.46 4.99877C9.5941 4.99877 8.88561 5.70726 8.88561 6.57319C8.88561 6.79951 8.93481 7.01599 9.02337 7.21279L7.53752 8.69865H3.71956V3.54244H26.9816V4.99877ZM15.5277 8.30504C15.5277 8.52153 15.3506 8.69865 15.1341 8.69865C14.9176 8.69865 14.7405 8.52153 14.7405 8.30504C14.7405 8.08856 14.9176 7.91144 15.1341 7.91144C15.3506 7.91144 15.5277 8.08856 15.5277 8.30504ZM21.2251 16.6888C21.2251 16.9053 21.048 17.0824 20.8315 17.0824C20.615 17.0824 20.4379 16.9053 20.4379 16.6888C20.4379 16.4723 20.615 16.2952 20.8315 16.2952C21.048 16.2952 21.2251 16.4723 21.2251 16.6888ZM9.67282 16.4625C9.67282 16.246 9.84994 16.0689 10.0664 16.0689C10.2829 16.0689 10.46 16.246 10.46 16.4625C10.46 16.679 10.2829 16.8561 10.0664 16.8561C9.84994 16.8561 9.67282 16.6888 9.67282 16.4625ZM15.3014 16.6888C15.3014 16.4723 15.4785 16.2952 15.695 16.2952C15.9114 16.2952 16.0886 16.4723 16.0886 16.6888C16.0886 16.9053 15.9114 17.0824 15.695 17.0824C15.4785 17.0824 15.3014 16.9053 15.3014 16.6888ZM21.0086 11.631C21.0086 11.4145 21.1857 11.2374 21.4022 11.2374C21.6187 11.2374 21.7958 11.4145 21.7958 11.631C21.7958 11.8475 21.6187 12.0246 21.4022 12.0246C21.1857 12.0246 21.0086 11.8475 21.0086 11.631ZM10.0664 6.57319C10.0664 6.3567 10.2435 6.17958 10.46 6.17958C10.6765 6.17958 10.8536 6.3567 10.8536 6.57319C10.8536 6.78967 10.6765 6.96679 10.46 6.96679C10.2435 6.96679 10.0664 6.78967 10.0664 6.57319ZM28.4182 24.679H22.7897V23.262H28.1427C29.4514 23.262 30.524 22.1993 30.524 20.8807V2.3813C30.524 1.06273 29.4514 0 28.1427 0H2.55843C1.23985 0 0.177122 1.06273 0.177122 2.3813V20.8905C0.177122 22.1993 1.23985 23.2718 2.55843 23.2718H7.91144V24.6888H2.2829C1.02337 24.679 0 25.7023 0 26.9619V29.7171C0 30.9766 1.02337 32 2.2829 32H28.4084C29.6679 32 30.6913 30.9766 30.6913 29.7171V26.9619C30.7011 25.7023 29.6777 24.679 28.4182 24.679ZM2.55843 22.0812C1.89914 22.0812 1.35793 21.54 1.35793 20.8807V2.3813C1.35793 1.72202 1.89914 1.18081 2.55843 1.18081H28.1427C28.802 1.18081 29.3432 1.72202 29.3432 2.3813V20.8905C29.3432 21.5498 28.802 22.091 28.1427 22.091H2.55843V22.0812ZM21.6089 23.262V24.679H9.09225V23.262H21.6089ZM29.5203 29.7171C29.5203 30.3272 29.0283 30.8192 28.4182 30.8192H2.2829C1.67282 30.8192 1.18081 30.3272 1.18081 29.7171V26.9619C1.18081 26.3518 1.67282 25.8598 2.2829 25.8598H28.4084C29.0184 25.8598 29.5105 26.3518 29.5105 26.9619V29.7171H29.5203ZM14.2288 28.3395C14.2288 28.6642 13.9631 28.9299 13.6384 28.9299H3.48339C3.15867 28.9299 2.89299 28.6642 2.89299 28.3395C2.89299 28.0148 3.15867 27.7491 3.48339 27.7491H13.6384C13.9631 27.7491 14.2288 28.0148 14.2288 28.3395ZM27.9262 28.3395C27.9262 28.6642 27.6605 28.9299 27.3358 28.9299H25.5646C25.2399 28.9299 24.9742 28.6642 24.9742 28.3395C24.9742 28.0148 25.2399 27.7491 25.5646 27.7491H27.3358C27.6605 27.7491 27.9262 28.0148 27.9262 28.3395Z" fill="#4E4E4E"/>
</svg>
